<svg width="500" height="500" viewBox="0 0 500 500" fill="none" xmlns="http://www.w3.org/2000/svg">
<path d="M415.72 428.23H419.14L426.58 417.85V411C426.58 411 431.86 410.68 431.24 419.6C430.62 428.52 431.29 426.25 431.29 426.25C431.29 426.25 442.49 426.25 443.42 427.25C444.1 427.95 444.42 439.08 444.52 445.11C444.594 446.566 444.178 448.005 443.339 449.198C442.5 450.39 441.286 451.268 439.89 451.69C439.499 451.797 439.095 451.85 438.69 451.85C435.89 451.85 421.62 449.58 421.62 449.58H415.72V428.23Z" fill="#E0E0E0"/>
<path d="M405.95 426.36L408.05 449.7H413.9V426.83L405.95 426.36Z" fill="#E0E0E0"/>
<path d="M241.21 77.24L255.91 98.24C256.287 98.7641 256.785 99.1891 257.363 99.4787C257.94 99.7684 258.578 99.914 259.224 99.9032C259.869 99.8924 260.503 99.7254 261.07 99.4167C261.637 99.1079 262.121 98.6664 262.48 98.13L276.71 76.27L241.21 77.24Z" fill="#E0E0E0"/>
<path d="M278.49 42.05H237.22C230.836 42.05 225.66 47.2256 225.66 53.6101V77.32C225.66 83.7045 230.836 88.88 237.22 88.88H278.49C284.874 88.88 290.05 83.7045 290.05 77.32V53.6101C290.05 47.2256 284.874 42.05 278.49 42.05Z" fill="#E0E0E0"/>
<path d="M270.47 61.1601C268.4 57.3901 264.98 56.8001 262.68 57.6601C261.058 58.3692 259.72 59.6015 258.88 61.1601C258.04 59.6015 256.702 58.3692 255.08 57.6601C252.78 56.8001 249.36 57.3901 247.3 61.1601C243 69.0001 258.88 79.2801 258.88 79.2801C258.88 79.2801 274.77 69.0001 270.47 61.1601Z" fill="white"/>
<path d="M79.8 404.91H113.71C117.33 404.91 120.802 406.348 123.362 408.908C125.922 411.468 127.36 414.94 127.36 418.56V435.78C127.36 439.4 125.922 442.872 123.362 445.432C120.802 447.992 117.33 449.43 113.71 449.43H104.85L98.61 458.35C98.2567 458.856 97.7846 459.268 97.2351 459.549C96.6856 459.83 96.0755 459.972 95.4584 459.962C94.8413 459.952 94.2361 459.791 93.6959 459.492C93.1556 459.194 92.6969 458.767 92.36 458.25L86.62 449.43H79.8C76.1798 449.43 72.7079 447.992 70.148 445.432C67.5881 442.872 66.15 439.4 66.15 435.78V418.56C66.15 414.94 67.5881 411.468 70.148 408.908C72.7079 406.348 76.1798 404.91 79.8 404.91Z" fill="#E0E0E0"/>
<path d="M95.55 418.59V436.15L82.98 427.37L95.55 418.59Z" fill="white"/>
<path d="M112.37 437.53C112.37 437.53 111.54 425.06 101.56 424.87H95.1801V430.23L101.47 430.32C101.47 430.32 108 430.17 112.37 437.53Z" fill="white"/>
<path d="M100.243 221.065C101.388 216.234 98.3995 211.389 93.5682 210.245C88.7369 209.1 83.8924 212.088 82.7477 216.92C81.6029 221.751 84.5915 226.595 89.4227 227.74C94.254 228.885 99.0985 225.896 100.243 221.065Z" fill="#E0E0E0"/>
<path d="M91.5 226.92C87.4236 226.92 83.5142 228.539 80.6318 231.422C77.7493 234.304 76.13 238.214 76.13 242.29H106.87C106.87 238.214 105.251 234.304 102.368 231.422C99.4858 228.539 95.5764 226.92 91.5 226.92Z" fill="#E0E0E0"/>
<path d="M343.25 50.1201C343.25 51.3563 342.883 52.5646 342.197 53.5924C341.51 54.6202 340.534 55.4213 339.392 55.8944C338.25 56.3674 336.993 56.4912 335.781 56.25C334.568 56.0089 333.455 55.4136 332.581 54.5395C331.707 53.6655 331.111 52.5518 330.87 51.3394C330.629 50.1271 330.753 48.8704 331.226 47.7284C331.699 46.5863 332.5 45.6102 333.528 44.9234C334.555 44.2367 335.764 43.8701 337 43.8701C337.821 43.8688 338.634 44.0296 339.393 44.3432C340.152 44.6568 340.842 45.1171 341.422 45.6978C342.003 46.2784 342.463 46.9679 342.777 47.7268C343.091 48.4857 343.251 49.299 343.25 50.1201Z" fill="#E0E0E0"/>
<path d="M360.59 64.75C360.59 65.9861 360.224 67.1945 359.537 68.2223C358.85 69.2501 357.874 70.0512 356.732 70.5242C355.59 70.9973 354.333 71.1211 353.121 70.8799C351.908 70.6387 350.795 70.0435 349.921 69.1694C349.047 68.2953 348.451 67.1817 348.21 65.9693C347.969 64.7569 348.093 63.5003 348.566 62.3582C349.039 61.2162 349.84 60.2401 350.868 59.5533C351.896 58.8666 353.104 58.5 354.34 58.5C355.998 58.5 357.587 59.1585 358.76 60.3306C359.932 61.5027 360.59 63.0924 360.59 64.75Z" fill="#E0E0E0"/>
<path d="M343.35 79.6702C343.35 80.9063 342.984 82.1147 342.297 83.1425C341.61 84.1703 340.634 84.9714 339.492 85.4444C338.35 85.9175 337.093 86.0412 335.881 85.8001C334.668 85.5589 333.555 84.9637 332.681 84.0896C331.807 83.2155 331.211 82.1019 330.97 80.8895C330.729 79.6771 330.853 78.4204 331.326 77.2784C331.799 76.1364 332.6 75.1602 333.628 74.4735C334.656 73.7867 335.864 73.4202 337.1 73.4202C338.758 73.4202 340.347 74.0786 341.52 75.2507C342.692 76.4229 343.35 78.0126 343.35 79.6702Z" fill="#E0E0E0"/>
<path d="M337.43 80.05L336.77 79.29L353.57 64.76L336.68 50.51L337.32 49.74L355.11 64.75L337.43 80.05Z" fill="#E0E0E0"/>
<path d="M451.1 196.75C448.4 191.81 443.92 191.05 440.92 192.17C438.788 193.094 437.027 194.707 435.92 196.75C434.813 194.707 433.052 193.094 430.92 192.17C427.92 191.05 423.44 191.81 420.74 196.75C415.16 207 436 220.45 436 220.45C436 220.45 456.73 207 451.1 196.75Z" fill="#E0E0E0"/>
<path d="M426.52 244.75C424.59 241.23 421.41 240.69 419.26 241.49C417.749 242.151 416.503 243.299 415.72 244.75C414.937 243.299 413.691 242.151 412.18 241.49C410.04 240.69 406.85 241.23 404.93 244.75C400.93 252.08 415.72 261.63 415.72 261.63C415.72 261.63 430.53 252.08 426.52 244.75Z" fill="#E0E0E0"/>
<path d="M442.75 74.3501H376.07C372.144 74.3501 368.378 75.9091 365.601 78.6843C362.824 81.4596 361.263 85.224 361.26 89.1501V129.57C361.26 131.515 361.643 133.44 362.388 135.236C363.132 137.032 364.223 138.664 365.598 140.039C366.974 141.413 368.606 142.503 370.403 143.246C372.2 143.99 374.126 144.371 376.07 144.37H396.68L408.23 160.9C408.597 161.42 409.085 161.842 409.652 162.13C410.219 162.418 410.848 162.563 411.484 162.553C412.12 162.542 412.744 162.375 413.301 162.068C413.858 161.761 414.331 161.322 414.68 160.79L425.36 144.37H442.75C444.694 144.371 446.619 143.989 448.415 143.246C450.211 142.503 451.844 141.413 453.218 140.038C454.593 138.664 455.683 137.032 456.426 135.235C457.169 133.439 457.551 131.514 457.55 129.57V89.1501C457.55 87.2065 457.167 85.282 456.423 83.4864C455.68 81.6908 454.589 80.0592 453.215 78.6849C451.841 77.3106 450.209 76.2205 448.414 75.4767C446.618 74.7329 444.694 74.3501 442.75 74.3501Z" fill="white"/>
<path d="M442.75 74.35H443.25C443.742 74.3532 444.233 74.3866 444.72 74.45C446.627 74.6695 448.468 75.2788 450.13 76.24C452.326 77.4847 454.17 79.2676 455.487 81.4211C456.804 83.5746 457.552 86.0279 457.66 88.55C457.72 90.62 457.66 92.8 457.66 95.1C457.66 104.32 457.66 115.44 457.72 128.1C457.781 129.719 457.654 131.34 457.34 132.93C456.973 134.568 456.327 136.131 455.43 137.55C453.559 140.529 450.709 142.763 447.37 143.87C445.645 144.405 443.845 144.658 442.04 144.62H425.36L425.56 144.51L419.45 153.91L416.3 158.76C415.75 159.58 415.3 160.39 414.67 161.22C414.015 162.059 413.063 162.614 412.01 162.77C410.952 162.914 409.88 162.649 409.01 162.03C408.583 161.717 408.214 161.331 407.92 160.89L407.06 159.65L403.58 154.65L396.47 144.5L396.69 144.61H377C375.598 144.648 374.196 144.531 372.82 144.26C371.453 143.947 370.133 143.459 368.89 142.81C366.467 141.492 364.45 139.537 363.058 137.156C361.665 134.775 360.95 132.058 360.99 129.3C360.99 118.69 360.99 108.46 360.99 98.71C360.99 96.27 360.99 93.87 360.99 91.49C360.99 90.3 360.99 89.13 361.05 87.94C361.099 87.3496 361.179 86.7621 361.29 86.18C361.43 85.6 361.56 85.03 361.74 84.47C362.478 82.2746 363.697 80.2723 365.31 78.61C366.908 76.9907 368.854 75.7562 371 75C371.512 74.8086 372.037 74.6516 372.57 74.53C373.096 74.3947 373.63 74.2978 374.17 74.24C375.229 74.1242 376.295 74.0774 377.36 74.1H395L429.92 74.19H439.41H441.88H442.72C442.72 74.19 442.44 74.19 441.88 74.19H439.41H429.92L395 74.53H383.43H377.28C376.235 74.5065 375.189 74.5533 374.15 74.67C373.623 74.727 373.102 74.8239 372.59 74.96C372.074 75.0796 371.566 75.2333 371.07 75.42C369.022 76.1633 367.167 77.3559 365.64 78.91C364.075 80.5217 362.895 82.4671 362.19 84.6C362.01 85.14 361.89 85.7 361.75 86.26C361.61 86.82 361.54 87.39 361.52 87.96C361.44 89.11 361.47 90.3 361.47 91.48V98.7C361.47 108.45 361.47 118.7 361.47 129.29C361.434 131.955 362.127 134.579 363.473 136.879C364.82 139.179 366.769 141.067 369.11 142.34C370.306 142.971 371.581 143.442 372.9 143.74C374.239 144.01 375.605 144.124 376.97 144.08H396.76L396.84 144.19L403.94 154.34L407.42 159.34L408.28 160.57C408.55 160.961 408.889 161.3 409.28 161.57C410.04 162.127 410.988 162.366 411.922 162.236C412.856 162.105 413.702 161.615 414.28 160.87C414.82 160.11 415.35 159.25 415.88 158.45C416.953 156.823 418.007 155.207 419.04 153.6L425.17 144.2L425.24 144.09H442.09C443.847 144.14 445.601 143.9 447.28 143.38C450.525 142.318 453.296 140.153 455.11 137.26C455.989 135.887 456.622 134.371 456.98 132.78C457.296 131.221 457.423 129.63 457.36 128.04C457.36 115.39 457.36 104.27 457.42 95.04C457.42 92.74 457.42 90.55 457.42 88.5C457.338 86.5966 456.882 84.7279 456.08 83C454.816 80.2187 452.719 77.8986 450.08 76.36C448.439 75.3898 446.62 74.7606 444.73 74.51C444.246 74.4379 443.759 74.3911 443.27 74.37L442.75 74.35Z" fill="#263238"/>
<path d="M411.31 95.8601V123.48L431.08 109.67L411.31 95.8601Z" fill="#F5CB5C"/>
<path d="M384.85 125.66C384.85 125.66 386.16 106.04 401.85 105.74H411.85V114.18L401.96 114.32C401.96 114.32 391.65 114.08 384.85 125.66Z" fill="#F5CB5C"/>
<path d="M352.61 388.84H466.2C472.529 388.84 477.66 383.709 477.66 377.38V289.46C477.66 283.131 472.529 278 466.2 278H352.61C346.281 278 341.15 283.131 341.15 289.46V377.38C341.15 383.709 346.281 388.84 352.61 388.84Z" fill="white"/>
<path d="M403.92 385.45C402.52 388.84 375.45 414.29 375.45 414.29V385.45H403.92Z" fill="#455A64"/>
<path d="M393.44 362.24C393.44 358.74 393.44 355.82 393.44 355.46C393.44 355.46 381.61 354.34 380.76 342.63C380.35 336.97 380.45 325.23 380.67 314.63C380.784 309.133 382.963 303.881 386.775 299.919C390.587 295.957 395.752 293.576 401.24 293.25L402.37 293.18C414.62 293.18 421.47 303.55 421.15 315.79L420.72 361.72L400.92 377.63L399.48 377.5L393.44 362.24Z" fill="#FFBF9D"/>
<path d="M393.42 355.46C398.836 355.121 404.042 353.236 408.42 350.03C408.42 350.03 405.21 358.82 393.42 358.47V355.46Z" fill="#FF9A6C"/>
<path d="M400.6 319.68C400.83 319.92 402.19 318.85 404.15 318.82C406.11 318.79 407.57 319.77 407.78 319.52C407.99 319.27 407.64 318.98 407.01 318.52C406.159 317.931 405.144 317.627 404.11 317.65C403.083 317.669 402.09 318.019 401.28 318.65C400.68 319.13 400.49 319.57 400.6 319.68Z" fill="#263238"/>
<path d="M402.05 325C402.068 325.413 402.249 325.802 402.552 326.083C402.855 326.364 403.257 326.514 403.67 326.5C403.872 326.505 404.074 326.47 404.262 326.396C404.451 326.322 404.623 326.211 404.767 326.069C404.912 325.927 405.026 325.757 405.104 325.57C405.182 325.383 405.221 325.183 405.22 324.98C405.199 324.567 405.019 324.179 404.716 323.897C404.414 323.615 404.013 323.462 403.6 323.47C403.397 323.466 403.195 323.503 403.007 323.578C402.818 323.653 402.647 323.765 402.502 323.908C402.358 324.051 402.243 324.221 402.166 324.408C402.088 324.596 402.049 324.797 402.05 325Z" fill="#263238"/>
<path d="M395.51 333.25C394.529 333.008 393.521 332.891 392.51 332.9C392.05 332.9 391.61 332.82 391.51 332.51C391.444 332.034 391.524 331.549 391.74 331.12C392.1 329.99 392.48 328.79 392.89 327.54C394.48 322.44 395.6 318.25 395.39 318.19C395.18 318.13 393.73 322.19 392.14 327.32C391.76 328.57 391.39 329.77 391.05 330.92C390.793 331.492 390.747 332.137 390.92 332.74C390.995 332.898 391.105 333.037 391.242 333.147C391.379 333.256 391.539 333.332 391.71 333.37C391.97 333.422 392.235 333.442 392.5 333.43C393.507 333.508 394.52 333.447 395.51 333.25Z" fill="#263238"/>
<path d="M401.57 313.38C401.76 313.82 403.33 313.51 405.21 313.64C407.09 313.77 408.63 314.19 408.85 313.77C408.95 313.58 408.66 313.17 408.03 312.77C407.195 312.289 406.258 312.012 405.296 311.96C404.333 311.908 403.372 312.082 402.49 312.47C401.82 312.8 401.49 313.18 401.57 313.38Z" fill="#263238"/>
<path d="M383.18 314.5C383.38 314.86 384.92 314.5 386.77 314.45C388.62 314.4 390.16 314.67 390.36 314.3C390.45 314.13 390.15 313.81 389.51 313.52C388.643 313.16 387.708 312.993 386.77 313.03C385.821 313.044 384.887 313.263 384.03 313.67C383.39 314 383.09 314.33 383.18 314.5Z" fill="#263238"/>
<path d="M420.7 324.52C420.89 324.42 428.61 321.65 428.84 329.68C429.07 337.71 420.95 336.28 420.93 336.05C420.91 335.82 420.7 324.52 420.7 324.52Z" fill="#FFBF9D"/>
<path d="M423.3 332.94C423.3 332.94 423.44 333.04 423.68 333.14C424.017 333.276 424.393 333.276 424.73 333.14C425.57 332.8 426.24 331.44 426.24 329.99C426.243 329.299 426.093 328.616 425.8 327.99C425.716 327.74 425.573 327.514 425.383 327.332C425.194 327.149 424.963 327.015 424.71 326.94C424.548 326.901 424.378 326.921 424.229 326.996C424.081 327.071 423.964 327.197 423.9 327.35C423.8 327.58 423.9 327.73 423.81 327.75C423.72 327.77 423.63 327.62 423.69 327.29C423.73 327.088 423.836 326.906 423.99 326.77C424.096 326.682 424.219 326.617 424.352 326.58C424.484 326.542 424.623 326.532 424.76 326.55C425.091 326.608 425.401 326.748 425.663 326.958C425.926 327.168 426.131 327.44 426.26 327.75C426.615 328.44 426.801 329.204 426.8 329.98C426.8 331.6 426.01 333.13 424.86 333.5C424.646 333.57 424.419 333.592 424.196 333.562C423.972 333.533 423.758 333.453 423.57 333.33C423.32 333.13 423.27 333 423.3 332.94Z" fill="#FF9A6C"/>
<path d="M398 340.08C397.91 339.88 399.49 339.43 400.62 337.96C401.091 337.32 401.474 336.621 401.76 335.88C402 335.3 402.18 334.94 402.27 334.97C402.36 335 402.32 335.39 402.19 335.97C402.007 336.818 401.642 337.617 401.12 338.31C400.582 339.001 399.867 339.533 399.05 339.85C398.43 340.14 398 340.15 398 340.08Z" fill="#263238"/>
<path d="M431.54 311.66C429.9 308.8 429.54 305.42 428.68 302.25C427.82 299.08 426.09 295.78 423.01 294.64H422.94C420.17 293.48 416.74 293.42 414.43 295.33C413.92 291.15 410.31 287.79 406.25 286.67C402.19 285.55 395.65 286.11 391.72 287.67C388.72 288.84 385.72 291.3 382.14 294.91C380.623 296.432 379.232 298.074 377.98 299.82L374.3 310.7L377.3 316.47C377.48 316.87 377.66 317.26 377.88 317.65L380.46 329.77C380.68 326.48 380.59 315.01 380.8 311.72C383.279 311.677 385.725 311.134 387.989 310.124C390.254 309.113 392.292 307.656 393.98 305.84C395.8 303.84 397.25 301.39 399.67 300.23C402.8 298.73 406.48 299.9 409.74 301.07L409.6 300.95C411.298 301.76 412.822 302.89 414.09 304.28C413.27 310.783 413.86 317.386 415.82 323.64C416.12 324.58 416.93 326.52 417.82 326.88C419.62 327.6 420.13 325.77 421.22 324.81C422.187 324.164 423.357 323.894 424.51 324.05C425.449 321.33 426.221 318.555 426.82 315.74C427.907 316.093 429.061 316.186 430.19 316.01L429.19 313.52C429.615 313.84 430.102 314.068 430.62 314.19C430.88 314.244 431.151 314.217 431.395 314.113C431.64 314.01 431.847 313.834 431.99 313.61C432.29 313 431.88 312.25 431.54 311.66Z" fill="#263238"/>
<path d="M410.73 296.65C411.146 296.981 411.534 297.346 411.89 297.74C412.8 298.871 413.403 300.218 413.64 301.65C413.83 302.638 413.917 303.644 413.9 304.65C413.9 305.73 413.79 306.88 413.69 308.1C413.566 309.376 413.519 310.658 413.55 311.94C413.587 312.611 413.668 313.279 413.79 313.94C413.881 314.664 414.157 315.353 414.59 315.94C414.792 316.17 415.05 316.344 415.339 316.445C415.628 316.547 415.938 316.572 416.24 316.52C416.816 316.417 417.342 316.129 417.74 315.7C418.388 314.822 418.789 313.786 418.9 312.7H418.66C419 313.587 419.469 314.419 420.05 315.17C420.61 315.87 421.421 316.325 422.31 316.44C422.723 316.49 423.142 316.424 423.52 316.25C423.869 316.07 424.158 315.792 424.35 315.45C424.523 315.145 424.612 314.8 424.61 314.45C424.604 314.11 424.476 313.784 424.25 313.53L424.12 313.64C424.809 314.445 425.657 315.098 426.61 315.56C426.863 315.679 427.124 315.783 427.39 315.87C427.479 315.909 427.573 315.932 427.67 315.94L427.41 315.83C427.23 315.75 426.98 315.65 426.65 315.48C425.73 314.993 424.914 314.331 424.25 313.53L424.13 313.64C424.317 313.889 424.422 314.19 424.431 314.502C424.44 314.814 424.352 315.12 424.18 315.38C424.009 315.688 423.747 315.936 423.43 316.09C423.086 316.246 422.704 316.302 422.33 316.25C421.506 316.131 420.758 315.701 420.24 315.05C419.679 314.31 419.224 313.496 418.89 312.63L418.73 312.25L418.65 312.65C418.531 313.676 418.148 314.655 417.54 315.49C417.184 315.872 416.714 316.128 416.2 316.22C415.944 316.269 415.68 316.249 415.434 316.163C415.188 316.077 414.97 315.928 414.8 315.73C414.396 315.188 414.141 314.55 414.06 313.88C413.93 313.22 413.85 312.552 413.82 311.88C413.788 310.609 413.828 309.337 413.94 308.07C414.03 306.85 414.13 305.69 414.13 304.6C414.132 303.592 414.031 302.587 413.83 301.6C413.574 300.144 412.931 298.783 411.97 297.66C411.615 297.258 411.196 296.916 410.73 296.65Z" fill="#455A64"/>
<path d="M374.37 307.58C374.37 307.58 374.37 307.58 374.46 307.66L374.75 307.88C374.906 307.998 375.069 308.105 375.24 308.2C375.467 308.343 375.705 308.47 375.95 308.58C377.508 309.323 379.226 309.667 380.95 309.58C383.51 309.443 385.976 308.568 388.05 307.06C390.551 305.195 392.647 302.841 394.21 300.14C395.08 298.74 395.79 297.29 396.57 295.96C397.289 294.664 398.188 293.475 399.24 292.43C400.189 291.49 401.358 290.802 402.64 290.43C403.22 290.277 403.821 290.217 404.42 290.25C404.973 290.289 405.518 290.403 406.04 290.59C406.945 290.911 407.77 291.423 408.46 292.09C408.988 292.589 409.427 293.174 409.76 293.82C410.017 294.385 410.215 294.975 410.35 295.58C410.352 295.54 410.352 295.5 410.35 295.46C410.35 295.36 410.35 295.24 410.35 295.1C410.253 294.643 410.109 294.197 409.92 293.77C409.592 293.106 409.156 292.501 408.63 291.98C407.531 290.853 406.06 290.163 404.49 290.04C403.868 289.997 403.242 290.058 402.64 290.22C401.318 290.581 400.107 291.269 399.12 292.22C398.046 293.273 397.13 294.475 396.4 295.79C395.61 297.14 394.9 298.58 394.03 299.97C392.487 302.641 390.423 304.973 387.96 306.83C385.917 308.325 383.487 309.203 380.96 309.36C379.264 309.469 377.567 309.171 376.01 308.49C374.9 308 374.39 307.54 374.37 307.58Z" fill="#455A64"/>
<path d="M382.71 320.18C382.94 320.42 384.31 319.35 386.27 319.33C388.23 319.31 389.68 320.28 389.89 320.03C390.1 319.78 389.76 319.48 389.12 319.03C388.269 318.441 387.254 318.137 386.22 318.16C385.194 318.182 384.202 318.533 383.39 319.16C382.8 319.63 382.6 320.08 382.71 320.18Z" fill="#263238"/>
<path d="M385.71 325.27C385.731 325.683 385.911 326.072 386.214 326.353C386.516 326.635 386.917 326.788 387.33 326.78C387.533 326.784 387.735 326.747 387.923 326.672C388.112 326.597 388.283 326.485 388.428 326.342C388.572 326.2 388.687 326.029 388.764 325.842C388.842 325.654 388.881 325.453 388.88 325.25C388.859 324.838 388.678 324.45 388.375 324.17C388.073 323.89 387.672 323.739 387.26 323.75C387.058 323.745 386.856 323.78 386.668 323.854C386.479 323.928 386.307 324.04 386.163 324.181C386.018 324.323 385.903 324.493 385.826 324.68C385.748 324.867 385.709 325.068 385.71 325.27Z" fill="#263238"/>
<path d="M379 298.47C378 299.79 376.47 300.99 374.83 300.81C374.235 300.685 373.65 300.514 373.08 300.3C372.51 300.65 372.64 302.61 373.08 303.15C373.452 303.609 373.864 304.034 374.31 304.42C372.38 305.42 370.63 304.95 368.58 304.2C368.786 305.953 369.449 307.62 370.502 309.037C371.555 310.453 372.961 311.568 374.58 312.27C375.075 312.536 375.626 312.679 376.188 312.69C376.749 312.7 377.305 312.577 377.81 312.33C378.585 311.698 379.095 310.799 379.24 309.81C380.158 306.296 380.642 302.682 380.68 299.05L379 298.47Z" fill="#263238"/>
<path d="M366.64 375.46L366.85 375.19C376.23 365.26 393.5 361.94 393.5 361.94C393.5 361.94 394.56 368.44 404.24 369.17C413.92 369.9 421 360 421 360L434 361.84C434 361.84 440.5 362.61 444.54 364.99C453.66 370.35 458.54 388.84 458.54 388.84L358.94 389.25L366.64 375.46Z" fill="#455A64"/>
<path d="M357.53 278L356.83 278.05L355.97 278.11C355.63 278.11 355.24 278.22 354.79 278.29C352.154 278.739 349.673 279.839 347.57 281.49C346.037 282.686 344.73 284.145 343.71 285.8C342.48 287.785 341.696 290.013 341.41 292.33C341.276 293.632 341.23 294.942 341.27 296.25C341.27 297.6 341.27 299.01 341.27 300.45C341.27 303.35 341.27 306.45 341.27 309.67C341.27 322.67 341.27 338.35 341.32 356.26C341.32 360.74 341.32 365.353 341.32 370.1C341.32 371.28 341.32 372.48 341.39 373.66C341.479 374.853 341.693 376.032 342.03 377.18C342.753 379.516 343.998 381.656 345.67 383.44C347.36 385.288 349.469 386.705 351.82 387.57L352.71 387.89L353.63 388.13C354.249 388.284 354.877 388.397 355.51 388.47C356.796 388.593 358.088 388.639 359.38 388.61H375.64V388.84C375.64 396.89 375.64 405.48 375.64 414.29L375.23 414.11C379.443 410.11 383.72 406.01 388.06 401.81C392.38 397.57 396.8 393.27 401.01 388.67L401.09 388.59H459.42C460.49 388.59 461.55 388.59 462.59 388.53C465.705 388.267 468.677 387.103 471.141 385.18C473.606 383.257 475.458 380.658 476.47 377.7C477.112 375.767 477.413 373.736 477.36 371.7V365.5C477.36 349.15 477.36 333.37 477.36 318.34C477.36 310.833 477.36 303.5 477.36 296.34C477.43 294.587 477.323 292.831 477.04 291.1C476.682 289.42 476.068 287.804 475.22 286.31C474.382 284.837 473.312 283.51 472.05 282.38C470.826 281.254 469.428 280.332 467.91 279.65C466.421 278.967 464.836 278.518 463.21 278.32C461.597 278.183 459.978 278.136 458.36 278.18H448.87H431.03L377.2 278.1L362.56 278.05H377.2L431.03 277.97H448.87H458.36C459.998 277.928 461.637 277.974 463.27 278.11C464.937 278.311 466.563 278.77 468.09 279.47C469.652 280.168 471.09 281.113 472.35 282.27C473.644 283.42 474.745 284.771 475.61 286.27C476.479 287.806 477.109 289.465 477.48 291.19C477.778 292.95 477.892 294.736 477.82 296.52C477.82 303.64 477.82 310.973 477.82 318.52C477.82 333.52 477.82 349.33 477.82 365.68V371.84C477.877 373.944 477.569 376.041 476.91 378.04C475.838 381.037 473.928 383.662 471.407 385.605C468.886 387.548 465.861 388.726 462.69 389C461.6 389.08 460.53 389.08 459.47 389.07H401.26L401.45 388.99C397.21 393.6 392.79 397.9 388.45 402.14C384.11 406.38 379.81 410.47 375.6 414.44L375.18 414.83V414.26C375.18 405.45 375.18 396.86 375.18 388.81L375.42 389.05H359.42C358.108 389.088 356.796 389.041 355.49 388.91C354.842 388.84 354.2 388.72 353.57 388.55L352.62 388.31L351.7 387.98C349.286 387.084 347.12 385.627 345.38 383.73C343.674 381.889 342.403 379.688 341.66 377.29C341.315 376.113 341.097 374.903 341.01 373.68C340.92 372.46 340.95 371.27 340.95 370.09C340.95 365.343 340.95 360.73 340.95 356.25C340.95 338.34 340.95 322.64 341 309.66C341 306.41 341 303.34 341 300.44C341 299 341 297.59 341 296.24C340.963 294.921 341.013 293.602 341.15 292.29C341.427 290.144 342.126 288.074 343.205 286.198C344.285 284.322 345.724 282.678 347.44 281.36C349.569 279.709 352.079 278.622 354.74 278.2C355.19 278.14 355.58 278.06 355.93 278.04H356.79L357.53 278Z" fill="#263238"/>
<path d="M48.2401 171.71L185.81 171.71C193.548 171.71 199.82 165.437 199.82 157.7L199.82 51.28C199.82 43.5425 193.548 37.27 185.81 37.27L48.2401 37.27C40.5026 37.27 34.2301 43.5425 34.2301 51.28L34.2301 157.7C34.2301 165.437 40.5026 171.71 48.2401 171.71Z" fill="white"/>
<path d="M110.37 167.6C108.67 171.71 75.83 202.6 75.83 202.6V167.6H110.37Z" fill="#455A64"/>
<path d="M150.54 96.27C150.62 89.27 151.73 82.27 151.46 75.27C151.19 68.27 149.34 60.96 144.46 55.94C139.58 50.92 131.08 48.94 125.36 53.05L124.19 59.05C126.443 86.0966 128.697 113.14 130.95 140.18C131.24 143.73 131.56 147.39 133.18 150.56C134.8 153.73 138.04 156.36 141.6 156.14C146.25 155.86 149.31 151.14 150.75 146.71C156 130.58 150.33 113.18 150.54 96.27Z" fill="#263238"/>
<path d="M133.67 59.9101C132.736 58.1286 131.535 56.4999 130.11 55.0801C129.388 54.377 128.517 53.8456 127.561 53.5253C126.605 53.205 125.59 53.1041 124.59 53.2301C124.119 53.2885 123.671 53.4661 123.287 53.7461C122.904 54.0261 122.599 54.3992 122.4 54.8301C122.09 55.7301 122.75 56.9201 123.7 56.8301L123.9 57.0001C126 58.8601 128.13 60.6801 130.31 62.4501C130.826 62.9321 131.43 63.3091 132.09 63.5601C132.429 63.688 132.797 63.7163 133.151 63.6419C133.506 63.5675 133.831 63.3934 134.09 63.1401C134.83 62.2801 134.26 60.9201 133.67 59.9101Z" fill="#F5CB5C"/>
<path d="M137.63 66.8C130.63 58.25 121.26 53.34 110.22 53.15C104 53.05 101.42 54.34 96.94 55.55C92.4446 56.6402 88.4761 59.2776 85.73 63C82.56 67.51 79.89 72.56 79.29 78.05C78.69 83.54 78.05 89.31 78.48 95C78.91 100.69 80.48 106.34 83.76 110.93L98.14 113.42C106.08 113.69 114.14 113.95 121.86 112.14C129.58 110.33 137.12 106.14 141.26 99.39C147 89.93 144.62 75.34 137.63 66.8Z" fill="#263238"/>
<path d="M98.08 138.9C98.18 133.9 98.35 127.53 98.35 127.56C98.35 127.59 86.63 126.27 83.35 111.24C81.74 103.77 81.44 91.3901 81.52 81.2401C81.59 72.1201 89.36 59.6901 100.63 59.6501L105.63 59.0701L124.79 66.6901C126.126 66.7592 127.388 67.3263 128.326 68.2796C129.264 69.2329 129.812 70.5032 129.86 71.8401L130.58 137.91L118.3 158.42L96.3 141.42L98.08 138.9Z" fill="#B56760"/>
<path d="M105.92 107.73C105.814 106.95 105.422 106.237 104.82 105.73C104.271 105.256 103.581 104.978 102.857 104.938C102.134 104.898 101.417 105.1 100.82 105.51C100.202 105.985 99.7221 106.616 99.4302 107.339C99.1383 108.061 99.045 108.849 99.16 109.62C99.4907 110.081 99.9159 110.467 100.407 110.752C100.899 111.036 101.445 111.213 102.01 111.27H102.54C103.44 111.25 104.3 110.893 104.95 110.27C105.289 109.945 105.552 109.548 105.72 109.109C105.888 108.67 105.956 108.199 105.92 107.73Z" fill="#8A4A43"/>
<path d="M87.61 93.0001C87.6308 93.5104 87.853 93.9915 88.2278 94.3383C88.6027 94.685 89.0997 94.8691 89.61 94.8501C89.8559 94.8541 90.1002 94.8093 90.3287 94.7182C90.5572 94.6271 90.7653 94.4916 90.9411 94.3196C91.1169 94.1475 91.2568 93.9423 91.3527 93.7158C91.4486 93.4894 91.4987 93.2461 91.5 93.0001C91.4645 92.4943 91.2382 92.0209 90.8669 91.6756C90.4956 91.3303 90.007 91.1389 89.5 91.1401C89.2532 91.1362 89.0081 91.1813 88.779 91.273C88.5498 91.3647 88.3412 91.5011 88.1653 91.6742C87.9894 91.8473 87.8497 92.0537 87.7544 92.2813C87.659 92.509 87.61 92.7533 87.61 93.0001Z" fill="#263238"/>
<path d="M84.9999 86.3201C85.2599 86.5601 86.6699 85.3901 88.7599 85.3201C90.8499 85.2501 92.4499 86.1701 92.6599 85.9101C92.8699 85.6501 92.4899 85.3401 91.7999 84.9101C90.8596 84.3304 89.7622 84.0578 88.6599 84.1301C87.5642 84.1815 86.5134 84.5808 85.6599 85.2701C85.0599 85.7401 84.8699 86.2101 84.9999 86.3201Z" fill="#263238"/>
<path d="M98.44 102.73C97.3165 102.44 96.1604 102.295 95 102.3C94.46 102.3 93.95 102.19 93.84 101.84C93.7604 101.288 93.8548 100.726 94.11 100.23L95.46 96.08C97.34 90.17 98.67 85.32 98.46 85.25C98.25 85.18 96.46 89.9 94.63 95.82L93.32 100C93.0183 100.662 92.9616 101.41 93.16 102.11C93.246 102.295 93.3739 102.457 93.5336 102.584C93.6934 102.711 93.8805 102.798 94.08 102.84C94.3784 102.908 94.6845 102.934 94.99 102.92C96.1434 103.002 97.3026 102.939 98.44 102.73Z" fill="#263238"/>
<path d="M98.35 127.56C105.492 127.272 112.414 125.012 118.35 121.03C118.35 121.03 113.52 131.83 98.27 131.25L98.35 127.56Z" fill="#8A4A43"/>
<path d="M104.67 103.83C104.33 103.83 104.45 106.1 102.6 107.83C100.75 109.56 98.3101 109.43 98.3101 109.75C98.3101 109.9 98.8701 110.16 99.9001 110.14C101.229 110.078 102.495 109.555 103.48 108.66C104.419 107.795 104.991 106.604 105.08 105.33C105.11 104.36 104.83 103.81 104.67 103.83Z" fill="#263238"/>
<path d="M85.71 79.0001C86.09 79.4901 87.71 79.0601 89.55 79.1101C91.39 79.1601 93.01 79.5701 93.39 79.1101C93.56 78.8701 93.33 78.3901 92.66 77.9101C91.7318 77.3334 90.6637 77.0212 89.5711 77.0071C88.4785 76.993 87.4027 77.2776 86.46 77.8301C85.78 78.2801 85.54 78.7601 85.71 79.0001Z" fill="#263238"/>
<path d="M111.41 92.46C111.426 92.968 111.243 93.462 110.899 93.836C110.555 94.21 110.078 94.4341 109.57 94.46C109.326 94.4791 109.08 94.4497 108.847 94.3735C108.614 94.2973 108.398 94.1757 108.212 94.0159C108.026 93.8561 107.874 93.661 107.764 93.4421C107.654 93.2231 107.588 92.9845 107.57 92.74C107.554 92.2321 107.737 91.738 108.081 91.364C108.425 90.99 108.902 90.766 109.41 90.74C109.654 90.7209 109.9 90.7503 110.133 90.8266C110.366 90.9028 110.582 91.0243 110.768 91.1842C110.953 91.344 111.106 91.539 111.216 91.758C111.326 91.9769 111.392 92.2155 111.41 92.46Z" fill="#263238"/>
<path d="M113.3 85.51C113.06 85.77 111.57 84.7 109.48 84.75C107.39 84.8 105.87 85.86 105.63 85.61C105.39 85.36 105.76 85.04 106.42 84.54C107.316 83.8985 108.388 83.5492 109.49 83.54C110.579 83.5223 111.646 83.8476 112.54 84.47C113.19 84.94 113.42 85.4 113.3 85.51Z" fill="#263238"/>
<path d="M112 78.81C111.6 79.29 110 78.81 108 78.81C106 78.81 104.42 79.19 104 78.7C103.83 78.46 104.08 77.98 104.79 77.52C105.766 76.9594 106.873 76.6694 107.998 76.68C109.123 76.6905 110.225 77.0012 111.19 77.58C112 78.09 112.22 78.57 112 78.81Z" fill="#263238"/>
<path d="M127.31 97.3199C127.25 96.1899 128.4 93.4499 129.51 93.2199C132.51 92.5899 137.84 92.5399 138.3 100.09C138.94 110.42 128.44 108.93 128.4 108.64C128.36 108.35 127.51 101.21 127.31 97.3199Z" fill="#B56760"/>
<path d="M131 104.69C131 104.69 131.19 104.8 131.5 104.92C131.933 105.093 132.417 105.093 132.85 104.92C133.91 104.45 134.72 102.66 134.66 100.8C134.643 99.8942 134.417 99.0046 134 98.2001C133.884 97.8827 133.692 97.5984 133.441 97.3719C133.19 97.1454 132.888 96.9835 132.56 96.9001C132.355 96.8665 132.144 96.9036 131.962 97.0053C131.781 97.1071 131.639 97.2674 131.56 97.4601C131.44 97.7601 131.56 97.9601 131.46 97.9801C131.36 98.0001 131.23 97.8201 131.29 97.3901C131.328 97.1316 131.456 96.8946 131.65 96.7201C131.928 96.4841 132.286 96.3658 132.65 96.3901C133.083 96.4473 133.494 96.6143 133.844 96.8751C134.194 97.1359 134.471 97.4818 134.65 97.8801C135.149 98.7454 135.424 99.7216 135.45 100.72C135.51 102.81 134.57 104.82 133.1 105.34C132.829 105.441 132.538 105.478 132.25 105.448C131.962 105.419 131.685 105.324 131.44 105.17C131.05 104.94 131 104.71 131 104.69Z" fill="#8A4A43"/>
<path d="M129.93 93.25L127.31 96C116 85.12 93.82 58 95.06 59.58C100.224 57.6463 105.791 57.0411 111.25 57.82C119.68 59.26 135.66 63.47 135.42 73.41C135.18 83.35 129.93 93.25 129.93 93.25Z" fill="#263238"/>
<path d="M144.94 91C144.91 90.7944 144.857 90.593 144.78 90.4C144.595 89.837 144.361 89.2915 144.08 88.77C143.013 86.8536 141.538 85.1946 139.76 83.91C137.124 82.0289 134.185 80.615 131.07 79.73C127.61 78.61 123.72 77.73 119.9 76.09C116.289 74.5836 112.864 72.6677 109.69 70.38C107.104 68.5031 104.694 66.3944 102.49 64.08C101.006 62.5118 99.6133 60.859 98.3199 59.13L97.3199 57.71C97.2061 57.5402 97.0791 57.3797 96.9399 57.23C97.0091 57.4234 97.1069 57.6055 97.2299 57.77C97.4499 58.11 97.7599 58.62 98.2299 59.25C99.4632 61.0359 100.82 62.7333 102.29 64.33C104.474 66.7026 106.882 68.8592 109.48 70.77C112.667 73.1084 116.121 75.0588 119.77 76.58C123.449 77.9786 127.197 79.1869 131 80.2C134.076 81.0447 136.989 82.3966 139.62 84.2C141.378 85.4369 142.863 87.0233 143.98 88.86C144.66 90.16 144.89 91 144.94 91Z" fill="#455A64"/>
<path d="M141.93 92.5899C141.962 91.8197 141.826 91.0518 141.53 90.3399C140.757 88.3626 139.405 86.665 137.65 85.4699C135.5 83.8599 132.42 82.8699 129.03 82.0899C125.345 81.3589 121.752 80.2185 118.32 78.6899C114.903 77.1327 111.695 75.154 108.77 72.7999C106.38 70.8738 104.186 68.7167 102.22 66.3599C100.902 64.7697 99.683 63.0999 98.57 61.3599L97.7 59.8999C97.6074 59.7231 97.4932 59.5585 97.36 59.4099C97.4161 59.5996 97.4968 59.7811 97.6 59.9499L98.4 61.4499C99.4472 63.2518 100.627 64.9732 101.93 66.5999C103.878 69.0089 106.066 71.2136 108.46 73.1799C111.407 75.5789 114.646 77.595 118.1 79.1799C121.566 80.719 125.196 81.8564 128.92 82.5699C132.3 83.3099 135.32 84.2499 137.44 85.7799C139.158 86.9161 140.512 88.5236 141.34 90.4099C141.602 91.1172 141.8 91.8468 141.93 92.5899Z" fill="#455A64"/>
<path d="M129.59 110.74C129.59 110.67 130.47 110.55 132 110.15C134.146 109.524 136.122 108.42 137.78 106.92C140.2 104.651 142.041 101.836 143.15 98.7101C144.557 94.8896 145.314 90.8606 145.39 86.7901C145.434 84.6886 145.266 82.5881 144.89 80.5201C144.498 78.6058 143.922 76.7338 143.17 74.9301C141.866 71.87 140.058 69.0508 137.82 66.5901C135.705 64.3757 133.384 62.3667 130.89 60.5901C131.093 60.6592 131.285 60.7569 131.46 60.8801C131.82 61.1101 132.37 61.4101 133.02 61.8801C134.896 63.1679 136.627 64.6567 138.18 66.3201C140.507 68.7816 142.392 71.6268 143.75 74.7301C144.537 76.5719 145.137 78.4882 145.54 80.4501C145.941 82.5588 146.119 84.704 146.07 86.8501C145.998 90.9983 145.206 95.1026 143.73 98.9801C142.562 102.186 140.625 105.057 138.09 107.34C136.37 108.847 134.311 109.917 132.09 110.46C131.488 110.604 130.877 110.701 130.26 110.75C130.037 110.778 129.812 110.775 129.59 110.74Z" fill="#455A64"/>
<path d="M65.14 155.48L65.4 155.15C76.78 143.15 97.73 139.08 97.73 139.08C97.73 139.08 99.01 146.96 110.73 147.84C122.45 148.72 131.1 136.76 131.1 136.76L146.77 138.96C146.77 138.96 154.65 139.89 159.56 142.77C170.62 149.28 176.49 171.71 176.49 171.71L55.67 172.2L65.14 155.48Z" fill="#455A64"/>
<path d="M54.09 37.27L53.25 37.33L52.25 37.39C51.84 37.39 51.36 37.53 50.82 37.61C47.6026 38.148 44.5707 39.4818 42 41.49C37.8617 44.714 35.1687 49.4456 34.51 54.65C34.3594 56.2286 34.306 57.8149 34.35 59.4C34.35 61.05 34.35 62.75 34.35 64.51C34.35 68.02 34.35 71.75 34.35 75.68C34.35 91.43 34.35 110.48 34.41 132.2C34.41 137.633 34.41 143.23 34.41 148.99C34.41 150.42 34.41 151.88 34.49 153.31C34.6006 154.76 34.862 156.194 35.27 157.59C36.1489 160.431 37.6601 163.036 39.69 165.21C40.7148 166.313 41.8584 167.299 43.1 168.15C44.3732 168.993 45.7388 169.688 47.17 170.22L48.25 170.62L49.37 170.9C50.1197 171.093 50.8814 171.237 51.65 171.33C52.42 171.45 53.2 171.43 53.98 171.48H76.06V171.72C76.06 181.47 76.06 191.89 76.06 202.58L75.65 202.4C80.7567 197.58 85.9467 192.607 91.22 187.48C96.46 182.34 101.82 177.12 106.93 171.54L107.01 171.46H177.74C179.04 171.46 180.33 171.46 181.59 171.37C185.381 171.055 188.998 169.641 191.998 167.302C194.998 164.963 197.25 161.8 198.48 158.2C199.259 155.837 199.622 153.357 199.55 150.87V143.4C199.55 123.56 199.55 104.4 199.55 86.19C199.55 77.0834 199.55 68.2034 199.55 59.55C199.634 57.4219 199.5 55.2908 199.15 53.19C198.731 51.1526 198.007 49.1903 197 47.37C194.95 43.8094 191.843 40.975 188.11 39.26C186.301 38.4317 184.375 37.8886 182.4 37.65C180.441 37.4833 178.475 37.4266 176.51 37.48H165H143.36L78 37.37L143.3 37.29H164.94H176.45C178.432 37.2376 180.415 37.2944 182.39 37.46C184.41 37.6977 186.381 38.2511 188.23 39.1C192.044 40.8528 195.22 43.7458 197.32 47.38C198.381 49.2523 199.15 51.2756 199.6 53.38C199.948 55.5113 200.082 57.6721 200 59.83C200 68.4967 200 77.3767 200 86.47C200 104.7 200 123.84 200 143.68V151.15C200.074 153.695 199.702 156.233 198.9 158.65C197.639 162.345 195.328 165.592 192.25 167.993C189.172 170.395 185.461 171.846 181.57 172.17C180.26 172.26 178.97 172.26 177.68 172.25H107.13L107.32 172.17C102.19 177.76 96.83 182.98 91.58 188.17C86.33 193.36 81.11 197.94 76 202.76L75.58 203.16V202.58C75.58 191.89 75.58 181.47 75.58 171.72L75.82 171.95H54C53.2 171.89 52.4 171.95 51.62 171.79C50.8345 171.695 50.0562 171.548 49.29 171.35L48.14 171.06L47 170.64C45.5408 170.093 44.1485 169.382 42.85 168.52C41.579 167.649 40.4056 166.643 39.35 165.52C37.2868 163.292 35.7491 160.63 34.85 157.73C34.4366 156.304 34.1685 154.84 34.05 153.36C34 151.87 34 150.43 34 149C34 143.24 34 137.643 34 132.21C34 110.49 34 91.44 34.06 75.69C34.06 71.76 34.06 68.03 34.06 64.52C34.06 62.76 34.06 61.06 34.06 59.41C34.0232 57.8145 34.0833 56.2182 34.24 54.63C34.9256 49.3787 37.6659 44.6136 41.86 41.38C44.4418 39.379 47.4849 38.0586 50.71 37.54C51.25 37.47 51.71 37.38 52.15 37.35L53.15 37.3L54.09 37.27Z" fill="#263238"/>
<path d="M126.42 267.53H30.04C23.7384 267.53 18.63 272.638 18.63 278.94V352.9C18.63 359.202 23.7384 364.31 30.04 364.31H126.42C132.722 364.31 137.83 359.202 137.83 352.9V278.94C137.83 272.638 132.722 267.53 126.42 267.53Z" fill="white"/>
<path d="M83 361.35C84.22 364.35 107.87 386.53 107.87 386.53V361.35H83Z" fill="#F5CB5C"/>
<path d="M99.63 289C99.0456 287.109 98.0902 285.353 96.8196 283.835C95.5491 282.317 93.9888 281.068 92.23 280.16C88.2596 278.311 83.7697 277.901 79.53 279C75.3294 280.111 71.3374 281.898 67.71 284.29C65.5743 285.471 63.6783 287.041 62.12 288.92C59.45 292.47 56.89 298.26 56.75 302.7C56.63 306.29 58.26 315.22 59.87 318.43C60.7251 319.756 61.9532 320.8 63.4 321.43C65.1256 324.611 67.4046 327.459 70.13 329.84C70.89 327.413 71.6534 324.983 72.42 322.55L99.63 289Z" fill="#263238"/>
<path d="M97.4401 284.66L90.3401 283.6C94.4601 292.68 96.1101 313.68 98.6001 323.34C101.09 319.49 106.81 307.81 106.36 303.24C105.91 298.67 105.81 283.64 97.4401 284.66Z" fill="#263238"/>
<path d="M64.39 300.92C64.441 298.337 65.3195 295.838 66.8964 293.791C68.4732 291.745 70.6653 290.258 73.15 289.55L89.3 284.94C96.3 283.94 101.24 292.49 101.91 299.53C102.64 307.35 103.19 315.62 102.44 321.53C100.94 333.35 91.97 335.13 91.97 335.13C91.97 335.13 92.13 340.72 92.22 344.13L89.59 359.52L68.3 341.34L64.3 301.06C64.34 300.86 64.38 301.19 64.39 300.92Z" fill="#FFBF9D"/>
<path d="M98.3501 309.32C98.3692 309.712 98.2329 310.096 97.9708 310.388C97.7087 310.68 97.3419 310.857 96.9501 310.88C96.7585 310.902 96.5644 310.886 96.3794 310.831C96.1943 310.777 96.022 310.686 95.8728 310.564C95.7236 310.442 95.6004 310.291 95.5106 310.12C95.4208 309.949 95.3662 309.762 95.3501 309.57C95.336 309.178 95.4738 308.796 95.7347 308.504C95.9955 308.211 96.3593 308.031 96.7501 308C96.9422 307.979 97.1366 307.997 97.3217 308.053C97.5068 308.108 97.6789 308.2 97.828 308.323C97.977 308.446 98.1 308.598 98.1897 308.769C98.2793 308.94 98.3339 309.127 98.3501 309.32Z" fill="#263238"/>
<path d="M100.27 304.19C100.09 304.39 98.92 303.58 97.27 303.64C95.62 303.7 94.48 304.54 94.27 304.34C94.06 304.14 94.36 303.9 94.87 303.5C95.5587 302.994 96.3858 302.711 97.24 302.69C98.083 302.664 98.9125 302.906 99.61 303.38C100.18 303.75 100.36 304.1 100.27 304.19Z" fill="#263238"/>
<path d="M83.7301 309.32C83.7492 309.712 83.6129 310.096 83.3508 310.388C83.0886 310.68 82.7219 310.857 82.3301 310.88C82.1385 310.902 81.9444 310.885 81.7593 310.831C81.5743 310.777 81.402 310.686 81.2528 310.564C81.1036 310.441 80.9804 310.291 80.8906 310.12C80.8008 309.949 80.7462 309.762 80.7301 309.57C80.7161 309.177 80.8553 308.793 81.1182 308.5C81.3812 308.208 81.7475 308.028 82.1401 308C82.3317 307.979 82.5255 307.997 82.71 308.053C82.8945 308.109 83.066 308.201 83.2142 308.324C83.3625 308.447 83.4846 308.598 83.5732 308.77C83.6618 308.941 83.7151 309.128 83.7301 309.32Z" fill="#263238"/>
<path d="M84.8601 304.63C84.6701 304.83 83.5101 304.02 81.8601 304.08C80.2101 304.14 79.0801 304.98 78.8601 304.78C78.6401 304.58 78.9501 304.34 79.4601 303.94C80.1487 303.434 80.9759 303.151 81.8301 303.13C82.6731 303.104 83.5026 303.346 84.2001 303.82C84.7601 304.19 85.0001 304.54 84.8601 304.63Z" fill="#263238"/>
<path d="M90.29 317.23C91.1416 316.943 92.0245 316.758 92.92 316.68C93.33 316.62 93.72 316.53 93.78 316.24C93.8013 315.811 93.6933 315.386 93.47 315.02C93.05 314.02 92.61 313.02 92.14 311.9C90.3 307.46 88.96 303.8 89.14 303.73C89.32 303.66 90.95 307.2 92.79 311.64L94.07 314.78C94.3426 315.273 94.4346 315.846 94.33 316.4C94.2745 316.548 94.1863 316.681 94.072 316.79C93.9577 316.9 93.8203 316.981 93.67 317.03C93.4424 317.098 93.2073 317.139 92.97 317.15C92.0838 317.291 91.1831 317.318 90.29 317.23Z" fill="#263238"/>
<path d="M76.25 331.35C76.25 331.35 80.31 339.35 92.04 337.85L92 335.09C86.5047 335.329 81.0513 334.034 76.25 331.35Z" fill="#FF9A6C"/>
<path d="M84.18 298.78C84.03 299.22 82.41 299.07 80.51 299.35C78.61 299.63 77.09 300.21 76.82 299.82C76.7 299.63 76.96 299.21 77.57 298.76C78.3824 298.212 79.3088 297.856 80.279 297.72C81.2492 297.583 82.2378 297.668 83.17 297.97C83.88 298.23 84.24 298.57 84.18 298.78Z" fill="#263238"/>
<path d="M99.6001 299.24C99.3301 299.62 98.2001 299.24 96.8501 299.29C95.5001 299.34 94.3801 299.62 94.1001 299.24C93.9801 299.05 94.1501 298.68 94.6401 298.32C95.2939 297.877 96.0654 297.64 96.8551 297.64C97.6447 297.64 98.4163 297.877 99.0701 298.32C99.5501 298.68 99.7201 299.06 99.6001 299.24Z" fill="#263238"/>
<path d="M98.4 288.88C97.9607 288.028 97.2932 287.315 96.472 286.821C95.6509 286.326 94.7085 286.07 93.75 286.08C91.8266 286.13 89.9586 286.734 88.37 287.82C81.48 292.07 78.16 301.95 71.37 306.34C69.7 307.41 67.45 306.53 66.04 307.94C64.63 309.35 63.76 311.55 64.61 313.35C63.5844 312.143 62.7358 310.796 62.09 309.35C61.7742 308.624 61.6171 307.839 61.6292 307.047C61.6413 306.256 61.8222 305.476 62.16 304.76C62.73 303.7 63.76 302.88 64.02 301.76C64.28 300.64 63.81 299.67 63.83 298.62C63.9241 297.555 64.2666 296.528 64.83 295.62C67.2933 290.656 71.0613 286.456 75.73 283.47C78.8116 281.559 82.3546 280.522 85.98 280.47C89.6162 280.452 93.1387 281.736 95.91 284.09C97.5 285.49 99.17 286.94 98.42 288.92" fill="#263238"/>
<path d="M66.25 309.39C66.11 309.06 59.91 307.02 60.02 313.54C60.12 319.88 66.48 318.45 66.48 318.27C66.48 318.09 66.25 309.39 66.25 309.39Z" fill="#FFBF9D"/>
<path d="M64.4801 315.91C64.4801 315.91 64.3701 315.99 64.1901 316.07C63.9234 316.175 63.6267 316.175 63.3601 316.07C62.9483 315.815 62.6107 315.456 62.3808 315.03C62.1509 314.603 62.0369 314.124 62.0501 313.64C62.03 313.096 62.1254 312.554 62.3301 312.05C62.3886 311.852 62.4935 311.67 62.6361 311.521C62.7787 311.371 62.9549 311.258 63.1501 311.19C63.2752 311.154 63.4093 311.163 63.5283 311.216C63.6474 311.269 63.7437 311.363 63.8001 311.48C63.8901 311.66 63.8501 311.78 63.8901 311.79C63.9301 311.8 64.0201 311.69 63.9701 311.42C63.928 311.265 63.8367 311.128 63.7101 311.03C63.5338 310.903 63.3152 310.849 63.1001 310.88C62.8411 310.937 62.6007 311.058 62.4014 311.233C62.202 311.408 62.0502 311.631 61.9601 311.88C61.7007 312.433 61.5806 313.04 61.6101 313.65C61.5899 314.216 61.7378 314.776 62.0349 315.258C62.3321 315.74 62.7654 316.124 63.2801 316.36C63.4506 316.403 63.6283 316.408 63.801 316.375C63.9737 316.343 64.1372 316.272 64.2801 316.17C64.4701 316.06 64.5101 315.92 64.4801 315.91Z" fill="#FF9A6C"/>
<path d="M63.63 306.21C63.7607 306.154 63.8848 306.083 64 306C64.24 305.84 64.6 305.63 65 305.3C66.22 304.35 67.3362 303.274 68.33 302.09C69.7678 300.318 71.1033 298.465 72.33 296.54C73.809 294.185 75.4814 291.957 77.33 289.88C78.326 288.839 79.4325 287.911 80.63 287.11C81.7538 286.382 82.9629 285.794 84.23 285.36C86.376 284.604 88.6467 284.264 90.92 284.36C92.453 284.411 93.9727 284.663 95.44 285.11C95.96 285.26 96.35 285.42 96.62 285.51L97.04 285.65L96.64 285.46C96.2589 285.288 95.8682 285.138 95.47 285.01C94.0023 284.508 92.4698 284.222 90.92 284.16C88.6166 284.053 86.3143 284.392 84.14 285.16C82.8511 285.6 81.6217 286.198 80.48 286.94C79.2586 287.744 78.1315 288.684 77.12 289.74C75.263 291.828 73.5901 294.073 72.12 296.45C70.882 298.373 69.5469 300.232 68.12 302.02C67.1809 303.171 66.1364 304.233 65 305.19C64.58 305.53 64.22 305.76 64 305.94L63.63 306.21Z" fill="white"/>
<path d="M65.28 308C65.0776 309.701 65.3259 311.425 66 313C66.85 314.52 68.89 315.51 70.37 314.6C71.58 313.87 71.9 312.28 72.07 310.88C72.56 306.83 72.71 302.74 73.23 298.69L65.28 308Z" fill="#263238"/>
<path d="M96.7601 285.91C96.7601 285.91 96.2001 285.82 95.1801 285.82C93.7458 285.837 92.3288 286.136 91.0101 286.7C90.0996 287.086 89.2316 287.565 88.4201 288.13C87.4926 288.79 86.6075 289.508 85.7701 290.28C83.8266 292.022 82.1007 293.993 80.6301 296.15C79.8601 297.3 79.1801 298.48 78.4301 299.58C77.739 300.649 76.9233 301.633 76.0001 302.51C74.395 303.95 72.6301 305.202 70.7401 306.24C69.1501 307.15 67.8101 307.79 66.8901 308.24L65.8201 308.73C65.6966 308.795 65.5656 308.846 65.4301 308.88C65.5412 308.796 65.6621 308.725 65.7901 308.67L66.7901 308.11C67.6901 307.63 69.0101 306.96 70.5801 306.04C72.4283 304.977 74.1551 303.717 75.7301 302.28C76.6377 301.418 77.4399 300.451 78.1201 299.4C78.8501 298.31 79.5301 297.13 80.3101 295.96C81.8061 293.766 83.5659 291.764 85.5501 290C86.4069 289.234 87.3084 288.519 88.2501 287.86C89.0813 287.289 89.9734 286.813 90.9101 286.44C92.2632 285.883 93.7173 285.614 95.1801 285.65C95.5761 285.664 95.9705 285.707 96.3601 285.78C96.498 285.808 96.6322 285.851 96.7601 285.91Z" fill="#455A64"/>
<path d="M65.0001 304.05C64.8326 304.201 64.648 304.332 64.4501 304.44L62.8701 305.44L62.3401 305.76C62.1314 305.893 61.8958 305.979 61.6501 306.01C61.5018 306.036 61.3489 306.008 61.2201 305.93C61.1503 305.882 61.0918 305.82 61.0487 305.748C61.0055 305.675 60.9787 305.594 60.9701 305.51C60.9784 305.218 61.0761 304.935 61.2501 304.7L63.0301 301.7L63.2901 301.93C62.686 302.393 62.0105 302.754 61.2901 303C60.5617 303.241 59.7969 303.352 59.0301 303.33C58.8339 303.332 58.6384 303.305 58.4501 303.25C58.3402 303.223 58.2379 303.171 58.1512 303.098C58.0646 303.025 57.9957 302.934 57.9501 302.83C57.9119 302.725 57.8993 302.612 57.9132 302.5C57.9271 302.389 57.9672 302.283 58.0301 302.19C58.1367 302.045 58.2537 301.908 58.3801 301.78C59.1903 300.952 59.8834 300.016 60.4401 299C60.9444 298.034 61.3756 297.031 61.7301 296C61.7127 296.29 61.6555 296.576 61.5601 296.85C61.337 297.617 61.0388 298.361 60.6701 299.07C60.1228 300.14 59.4258 301.127 58.6001 302C58.3701 302.23 58.1401 302.5 58.2401 302.69C58.3401 302.88 58.6901 302.98 59.0201 302.97C59.7467 302.991 60.4713 302.882 61.1601 302.65C61.846 302.428 62.4887 302.09 63.0601 301.65L63.8001 301.08L63.3201 301.88L61.5001 304.88C61.3584 305.062 61.2717 305.28 61.2501 305.51C61.2501 305.69 61.4201 305.79 61.6201 305.77C62.0249 305.671 62.408 305.498 62.7501 305.26L64.3801 304.37C64.5701 304.234 64.779 304.126 65.0001 304.05Z" fill="white"/>
<path d="M84.2101 320.4C84.3133 319.914 84.5844 319.481 84.9759 319.175C85.3673 318.87 85.8539 318.712 86.3501 318.73C86.7131 318.765 87.0617 318.89 87.3652 319.092C87.6687 319.294 87.9176 319.568 88.0901 319.89C88.255 320.215 88.3532 320.571 88.379 320.935C88.4047 321.299 88.3575 321.664 88.2401 322.01V322.16C87.9148 322.534 87.4816 322.799 86.9999 322.917C86.5182 323.035 86.0117 323.001 85.5501 322.82C85.0891 322.623 84.707 322.279 84.4642 321.84C84.2215 321.402 84.132 320.895 84.2101 320.4Z" fill="#FF9A6C"/>
<path d="M89.3901 322.16C89.3901 321.92 87.7501 322.04 86.4701 320.73C85.1901 319.42 85.2401 317.66 85.0101 317.66C84.7801 317.66 84.7301 318.08 84.7601 318.82C84.8274 319.779 85.227 320.684 85.8901 321.38C86.5287 322.051 87.4044 322.446 88.3301 322.48C89.0001 322.49 89.4101 322.27 89.3901 322.16Z" fill="#263238"/>
<path d="M115.58 352.63L115.4 352.39C107.2 343.72 92.12 340.82 92.12 340.82C92.12 340.82 91.2 346.49 82.75 347.13C74.3 347.77 68.08 339.13 68.08 339.13L56.81 340.71C56.81 340.71 51.13 341.38 47.59 343.46C39.59 348.14 35.41 364.29 35.41 364.29L122.41 364.64L115.58 352.63Z" fill="#F5CB5C"/>
<path d="M123.54 267.53C123.54 267.53 123.74 267.53 124.14 267.53C124.743 267.534 125.345 267.588 125.94 267.69C128.263 268.066 130.456 269.014 132.32 270.45C135.341 272.783 137.318 276.216 137.82 280C137.935 281.146 137.978 282.298 137.95 283.45C137.95 284.63 137.95 285.86 137.95 287.12C137.95 289.65 137.95 292.34 137.95 295.17C137.95 306.5 137.95 320.22 138.01 335.85C138.01 339.757 138.01 343.787 138.01 347.94C138.01 348.94 138.01 350.01 138.01 351.08C137.931 352.151 137.737 353.211 137.43 354.24C136.788 356.339 135.677 358.264 134.18 359.87C132.66 361.533 130.764 362.809 128.65 363.59L127.85 363.88L127.02 364.09C126.467 364.231 125.906 364.338 125.34 364.41C124.2 364.514 123.055 364.555 121.91 364.53H107.91L108.14 364.29C108.14 371.29 108.14 378.82 108.14 386.51V387.08L107.72 386.69C104.04 383.237 100.3 379.673 96.5 376C92.72 372.3 88.86 368.54 85.16 364.51L85.35 364.6H34.52C33.59 364.6 32.66 364.6 31.71 364.54C28.8955 364.305 26.2104 363.255 23.9833 361.518C21.7562 359.781 20.0836 357.432 19.17 354.76C18.5937 353.013 18.3231 351.179 18.37 349.34V343.96C18.37 329.67 18.37 315.9 18.37 302.77C18.37 296.21 18.37 289.82 18.37 283.6C18.3148 282.041 18.4153 280.479 18.67 278.94C18.9942 277.428 19.5472 275.975 20.31 274.63C21.8303 271.998 24.1291 269.902 26.89 268.63C28.2277 268.022 29.6511 267.624 31.11 267.45C32.5331 267.326 33.9623 267.286 35.39 267.33H59.29L106.29 267.41L119.07 267.46L106.29 267.51L59.29 267.59H43.71H35.42C34.0087 267.558 32.5967 267.602 31.19 267.72C29.0232 267.996 26.9503 268.772 25.135 269.987C23.3197 271.202 21.8117 272.822 20.73 274.72C19.9837 276.057 19.4475 277.5 19.14 279C18.8897 280.51 18.7959 282.041 18.86 283.57C18.86 289.777 18.86 296.167 18.86 302.74C18.86 315.87 18.86 329.64 18.86 343.93V349.31C18.804 351.092 19.0647 352.869 19.63 354.56C20.8057 357.999 23.2729 360.847 26.51 362.5C28.1405 363.341 29.9215 363.851 31.75 364C32.65 364.06 33.58 364.07 34.52 364.06H85.46L85.54 364.15C89.22 368.15 93.08 371.92 96.85 375.62C100.62 379.32 104.38 382.89 108.06 386.36L107.64 386.54C107.64 378.85 107.64 371.34 107.64 364.32V364.08H121.88C123.005 364.114 124.13 364.077 125.25 363.97C125.8 363.907 126.345 363.804 126.88 363.66L127.69 363.46L128.46 363.18C130.512 362.427 132.354 361.192 133.83 359.58C135.281 358.025 136.362 356.162 136.99 354.13C137.288 353.13 137.479 352.1 137.56 351.06C137.63 350.06 137.61 348.98 137.61 347.95C137.61 343.803 137.61 339.773 137.61 335.86C137.61 320.23 137.61 306.51 137.67 295.18C137.67 292.35 137.67 289.66 137.67 287.13V283.46C137.705 282.319 137.668 281.177 137.56 280.04C137.179 277.017 135.839 274.195 133.737 271.989C131.635 269.782 128.881 268.307 125.88 267.78C125.293 267.663 124.698 267.596 124.1 267.58L123.54 267.53Z" fill="#263238"/>
<path d="M309 466.09L184.24 466C169.24 466 157.08 454.4 157.08 440.1L157.14 142C157.14 127.69 169.32 116.09 184.34 116.1L309.11 116.17C324.11 116.17 336.27 127.77 336.27 142.07L336.21 440.16C336.2 454.51 324 466.1 309 466.09Z" fill="#263238"/>
<path d="M309 126.75H284.78C284.01 126.749 283.248 126.899 282.537 127.192C281.825 127.486 281.179 127.916 280.633 128.459C280.088 129.003 279.656 129.648 279.36 130.358C279.064 131.069 278.911 131.83 278.91 132.6V136.78C278.909 137.55 278.756 138.313 278.459 139.024C278.163 139.735 277.729 140.381 277.183 140.924C276.637 141.468 275.989 141.898 275.276 142.191C274.564 142.483 273.8 142.633 273.03 142.63H225.88C225.11 142.631 224.348 142.481 223.637 142.188C222.925 141.895 222.279 141.464 221.733 140.921C221.188 140.378 220.756 139.732 220.46 139.022C220.164 138.311 220.011 137.55 220.01 136.78V132.59C220.009 131.82 219.856 131.057 219.559 130.346C219.263 129.635 218.829 128.989 218.283 128.446C217.737 127.902 217.089 127.472 216.376 127.179C215.664 126.887 214.9 126.737 214.13 126.74H184.45C173.94 126.74 165.45 134.86 165.45 144.88L165.39 435.88C165.39 445.88 173.9 454.02 184.39 454.02L308.91 454.09C319.43 454.09 327.91 445.98 327.96 435.96L328.02 144.96C328 134.88 319.48 126.76 309 126.75Z" fill="white"/>
<path d="M242.53 199.28C244.291 199.154 245.941 198.377 247.16 197.1C248.378 195.823 249.077 194.139 249.121 192.374C249.165 190.61 248.55 188.892 247.396 187.557C246.242 186.221 244.632 185.363 242.88 185.15C243.732 183.856 244.156 182.326 244.09 180.777C244.024 179.229 243.472 177.74 242.512 176.523C241.553 175.306 240.235 174.422 238.745 173.996C237.254 173.57 235.668 173.624 234.21 174.15C233.861 172.663 233.132 171.292 232.094 170.17C231.057 169.049 229.747 168.215 228.291 167.751C226.836 167.286 225.285 167.207 223.79 167.521C222.295 167.834 220.906 168.53 219.76 169.54C217.804 168.497 215.558 168.134 213.373 168.507C211.188 168.88 209.189 169.968 207.69 171.6C206.164 171.596 204.677 172.086 203.452 172.996C202.227 173.907 201.329 175.19 200.894 176.653C200.458 178.116 200.508 179.681 201.035 181.113C201.563 182.546 202.54 183.769 203.82 184.6" fill="#263238"/>
<path d="M243.73 200.06C241.718 192.752 237.026 186.471 230.589 182.468C224.153 178.465 216.444 177.034 209 178.46L207.47 178.75C191.13 182.87 185.47 199.04 190.05 215.27L201.49 274.17L235.16 300.17L243.87 278.48L240.44 258.88C240.44 258.88 255.86 253.38 253.03 237.46C251.7 229.75 247.6 214.14 243.73 200.06Z" fill="#C17560"/>
<path d="M240.61 258.81C233.224 260.222 225.588 259.482 218.61 256.68C218.61 256.68 225.5 267.53 241.08 263.08L240.61 258.81Z" fill="#7C4236"/>
<path d="M242.31 215.3C242.43 215.891 242.313 216.505 241.986 217.011C241.659 217.517 241.148 217.876 240.56 218.01C240.276 218.088 239.979 218.108 239.686 218.07C239.394 218.031 239.112 217.935 238.858 217.786C238.603 217.636 238.381 217.438 238.205 217.202C238.028 216.966 237.901 216.696 237.83 216.41C237.711 215.819 237.827 215.205 238.154 214.699C238.481 214.193 238.992 213.834 239.58 213.7C239.864 213.622 240.162 213.602 240.454 213.64C240.746 213.679 241.028 213.776 241.282 213.925C241.537 214.074 241.759 214.272 241.935 214.509C242.112 214.745 242.239 215.014 242.31 215.3Z" fill="#263238"/>
<path d="M241.79 208.49C241.57 208.83 239.61 207.89 237.17 208.36C234.73 208.83 233.17 210.36 232.85 210.15C232.69 210.04 232.85 209.45 233.55 208.73C234.468 207.798 235.652 207.173 236.94 206.94C238.208 206.689 239.523 206.854 240.69 207.41C241.55 207.84 241.91 208.33 241.79 208.49Z" fill="#263238"/>
<path d="M220.17 220C220.286 220.591 220.167 221.203 219.839 221.708C219.51 222.212 218.997 222.568 218.41 222.7C218.126 222.778 217.83 222.798 217.538 222.76C217.247 222.721 216.966 222.624 216.712 222.475C216.458 222.326 216.237 222.127 216.062 221.891C215.886 221.655 215.76 221.386 215.69 221.1C215.571 220.511 215.687 219.898 216.014 219.393C216.341 218.888 216.853 218.532 217.44 218.4C217.724 218.322 218.022 218.302 218.314 218.34C218.606 218.379 218.888 218.476 219.142 218.625C219.397 218.774 219.619 218.972 219.795 219.208C219.972 219.445 220.099 219.714 220.17 220Z" fill="#263238"/>
<path d="M217.88 213.51C217.66 213.86 215.7 212.91 213.26 213.38C210.82 213.85 209.26 215.38 208.94 215.17C208.79 215.06 208.94 214.47 209.64 213.76C210.555 212.845 211.727 212.231 213 212C214.268 211.756 215.581 211.92 216.75 212.47C217.64 212.86 218 213.35 217.88 213.51Z" fill="#263238"/>
<path d="M230.19 229.93C230.19 229.79 231.62 229.24 234.02 228.45C234.63 228.27 235.2 228.04 235.22 227.59C235.149 226.936 234.88 226.319 234.45 225.82L231.71 221.43C227.86 215.16 224.95 209.95 225.2 209.8C225.45 209.65 228.78 214.61 232.63 220.88L235.3 225.31C235.835 225.99 236.114 226.836 236.09 227.7C236.041 227.937 235.939 228.16 235.792 228.352C235.645 228.544 235.456 228.701 235.24 228.81C234.922 228.963 234.586 229.077 234.24 229.15C231.76 229.76 230.23 230.06 230.19 229.93Z" fill="#263238"/>
<path d="M217 205.06C216.8 205.74 214.58 205.47 212 205.87C209.42 206.27 207.32 207.12 207 206.52C206.84 206.23 207.19 205.59 208 204.92C209.081 204.091 210.36 203.556 211.71 203.37C213.038 203.164 214.397 203.312 215.65 203.8C216.64 204.22 217.13 204.74 217 205.06Z" fill="#263238"/>
<path d="M240.44 199.79C240.03 200.44 237.91 200.25 235.44 200.68C232.97 201.11 231.04 201.91 230.44 201.42C230.18 201.17 230.39 200.56 231.19 199.86C232.302 198.971 233.631 198.394 235.04 198.19C236.434 197.929 237.872 198.053 239.2 198.55C240.23 199 240.62 199.47 240.44 199.79Z" fill="#263238"/>
<path d="M195.59 230.24C195.46 229.66 195.213 229.113 194.865 228.631C194.517 228.15 194.075 227.744 193.565 227.438C193.056 227.132 192.49 226.933 191.901 226.853C191.312 226.772 190.713 226.812 190.14 226.97C187.23 227.82 184.25 230.13 185.62 236.21C188.03 247 198.37 242.35 198.32 242.04C198.27 241.73 196.64 234.75 195.59 230.24Z" fill="#C17560"/>
<path d="M195.06 238.5C195.01 238.5 194.9 238.68 194.62 238.89C194.217 239.185 193.715 239.311 193.22 239.24C191.98 239.07 190.62 237.48 190.13 235.55C189.893 234.631 189.869 233.67 190.06 232.74C190.084 232.38 190.196 232.031 190.386 231.725C190.576 231.418 190.838 231.162 191.15 230.98C191.353 230.879 191.584 230.849 191.806 230.897C192.027 230.944 192.226 231.065 192.37 231.24C192.58 231.51 192.56 231.74 192.63 231.75C192.7 231.76 192.82 231.52 192.63 231.09C192.508 230.837 192.304 230.632 192.05 230.51C191.876 230.438 191.689 230.4 191.5 230.4C191.311 230.4 191.124 230.438 190.95 230.51C190.526 230.696 190.158 230.988 189.879 231.357C189.601 231.727 189.422 232.162 189.36 232.62C189.11 233.655 189.11 234.735 189.36 235.77C189.92 237.93 191.49 239.77 193.15 239.82C193.459 239.84 193.769 239.79 194.056 239.674C194.344 239.558 194.601 239.379 194.81 239.15C195.1 238.77 195.1 238.52 195.06 238.5Z" fill="#7C4236"/>
<path d="M230.4 179.19C230.25 178.938 230.072 178.703 229.87 178.49C229.098 177.706 228.153 177.113 227.112 176.757C226.071 176.401 224.961 176.293 223.87 176.44C222.525 176.041 221.151 175.747 219.76 175.56C218.704 174.308 217.346 173.347 215.814 172.767C214.282 172.187 212.628 172.008 211.008 172.246C209.387 172.485 207.854 173.133 206.555 174.129C205.255 175.126 204.231 176.437 203.58 177.94C203.14 178.09 202.71 178.25 202.28 178.42C200.925 177.77 199.44 177.44 197.937 177.455C196.435 177.47 194.956 177.829 193.614 178.505C192.272 179.181 191.104 180.156 190.198 181.355C189.292 182.554 188.674 183.945 188.39 185.42C186.99 185.313 185.589 185.622 184.363 186.308C183.138 186.993 182.142 188.026 181.501 189.276C180.86 190.526 180.603 191.937 180.761 193.332C180.919 194.728 181.486 196.046 182.39 197.12C180.65 198.61 179.39 200.87 179.73 203.12C180.07 205.37 182.43 206.95 184.42 206.31C185.03 211.59 186.75 217.61 188.05 222.96C188.97 226.73 194.24 228.07 195.05 230.59C199.25 243.44 202.17 235.34 198.63 207.75C198.86 207.48 199.1 207.2 199.33 206.9C199.666 206.254 199.956 205.586 200.2 204.9C200.66 204.09 201.8 204.1 202.73 204.02C204.34 203.84 205.838 203.111 206.974 201.957C208.11 200.802 208.815 199.292 208.97 197.68C209.97 198.68 211.88 198.32 212.97 197.3C213.926 196.178 214.717 194.925 215.32 193.58C216.07 192.3 217.22 191.07 218.69 191C219.508 191.118 220.337 191.141 221.16 191.07C222.56 190.68 222.94 188.87 222.88 187.42C222.702 186.194 222.861 184.943 223.34 183.8C224.122 183.207 225.007 182.763 225.95 182.49C226.5 182.49 227.07 182.49 227.61 182.43C227.869 182.416 228.126 182.383 228.38 182.33C228.737 182.379 229.091 182.449 229.44 182.54C234.68 183.95 240.76 193.1 240.76 193.1C240 186.7 235.52 182.1 230.4 179.19Z" fill="#263238"/>
<path d="M181.14 197.91C181.14 197.91 181.14 197.85 181.21 197.73C181.28 197.61 181.34 197.45 181.47 197.24C181.864 196.643 182.358 196.119 182.93 195.69C183.841 195.013 184.9 194.564 186.02 194.38C187.502 194.122 189.028 194.383 190.34 195.12L190.06 195.27C190.157 194.036 190.516 192.837 191.113 191.753C191.709 190.668 192.53 189.723 193.52 188.98C194.612 188.114 195.857 187.459 197.19 187.05C198.599 186.643 200.065 186.47 201.53 186.54C204.275 186.706 206.965 187.385 209.46 188.54L209.16 188.7C209.651 186.253 211.052 184.084 213.08 182.63C214.394 181.707 215.92 181.131 217.516 180.956C219.113 180.781 220.727 181.013 222.21 181.63C222.519 181.757 222.82 181.904 223.11 182.07C223.3 182.19 223.4 182.26 223.39 182.27C223.38 182.28 222.97 182.06 222.16 181.76C220.997 181.339 219.766 181.139 218.53 181.17C216.645 181.208 214.816 181.822 213.29 182.93C211.364 184.346 210.04 186.434 209.58 188.78L209.53 189.05L209.28 188.94C206.834 187.805 204.2 187.127 201.51 186.94C200.096 186.878 198.681 187.043 197.32 187.43C196.037 187.813 194.839 188.437 193.79 189.27C192.837 189.976 192.043 190.875 191.462 191.909C190.882 192.943 190.526 194.089 190.42 195.27V195.57L190.16 195.42C188.926 194.701 187.481 194.429 186.07 194.65C184.99 194.804 183.962 195.212 183.07 195.84C182.296 196.396 181.64 197.099 181.14 197.91Z" fill="#455A64"/>
<path d="M223.36 183.05C223.336 183.206 223.299 183.36 223.25 183.51C223.16 183.948 223.103 184.393 223.08 184.84C223.08 185.43 223.08 186.15 223.01 187C223.035 187.985 222.847 188.964 222.46 189.87C222.317 190.137 222.122 190.372 221.887 190.563C221.651 190.753 221.381 190.895 221.09 190.98C220.477 191.127 219.85 191.204 219.22 191.21C218.582 191.211 217.956 191.377 217.4 191.69C216.85 192.102 216.39 192.623 216.05 193.22C215.67 193.83 215.33 194.5 214.96 195.22C214.629 195.948 214.191 196.622 213.66 197.22C213.033 197.816 212.266 198.246 211.43 198.47C210.999 198.599 210.549 198.653 210.1 198.63C209.607 198.622 209.136 198.421 208.79 198.07L209.17 197.93C209.14 199.302 208.647 200.624 207.77 201.68C206.841 202.765 205.63 203.572 204.27 204.01C203.706 204.19 203.127 204.32 202.54 204.4C201.998 204.382 201.458 204.485 200.96 204.7C200.506 204.954 200.153 205.357 199.96 205.84C199.709 206.343 199.418 206.824 199.09 207.28C197.921 209.116 196.104 210.444 194 211C192.076 211.276 190.118 210.843 188.49 209.78C187.091 208.899 185.99 207.616 185.33 206.1L185.54 206.18C184.95 206.425 184.314 206.537 183.676 206.507C183.038 206.478 182.415 206.308 181.85 206.01C181.003 205.557 180.341 204.821 179.98 203.93C179.752 203.383 179.646 202.792 179.67 202.2C179.671 202.049 179.688 201.898 179.72 201.75C179.72 201.65 179.72 201.6 179.72 201.6C179.659 202.376 179.79 203.156 180.1 203.87C180.466 204.702 181.109 205.38 181.92 205.79C182.453 206.057 183.037 206.205 183.633 206.224C184.229 206.243 184.821 206.132 185.37 205.9L185.52 205.84L185.58 205.98C186.235 207.422 187.304 208.636 188.65 209.47C190.201 210.461 192.059 210.859 193.88 210.59C195.867 210.053 197.582 208.794 198.69 207.06C199.008 206.625 199.289 206.163 199.53 205.68C199.765 205.116 200.18 204.645 200.71 204.34C200.983 204.192 201.282 204.097 201.59 204.06L202.44 203.99C202.997 203.914 203.546 203.787 204.08 203.61C205.362 203.205 206.505 202.45 207.38 201.43C208.2 200.453 208.662 199.225 208.69 197.95V197.43L209.05 197.81C209.361 198.043 209.727 198.193 210.112 198.244C210.497 198.294 210.889 198.245 211.25 198.1C212.018 197.897 212.722 197.505 213.3 196.96C213.835 196.38 214.274 195.719 214.6 195C214.98 194.32 215.33 193.65 215.73 193C216.102 192.361 216.602 191.806 217.2 191.37C217.811 191.028 218.5 190.852 219.2 190.86C219.805 190.858 220.409 190.791 221 190.66C221.254 190.591 221.491 190.472 221.699 190.311C221.906 190.149 222.08 189.949 222.21 189.72C222.599 188.856 222.797 187.918 222.79 186.97C222.84 186.13 222.87 185.4 222.93 184.81C222.972 184.357 223.055 183.908 223.18 183.47C223.223 183.323 223.283 183.182 223.36 183.05Z" fill="#455A64"/>
<path d="M223.39 235.64C222.94 238.64 224.23 241.51 227.05 242.54C227.599 242.71 228.176 242.77 228.748 242.717C229.32 242.664 229.876 242.498 230.385 242.23C230.893 241.961 231.343 241.595 231.709 241.153C232.076 240.71 232.351 240.199 232.52 239.65C232.843 238.424 232.867 237.138 232.59 235.9C230 235.75 226 235.79 223.39 235.64Z" fill="#7C4236"/>
<path d="M232 240.86C232 240.86 232 240.94 231.89 241.07C231.766 241.261 231.618 241.436 231.45 241.59C230.835 242.176 230.058 242.563 229.22 242.7C227.957 242.893 226.667 242.631 225.58 241.96C224.931 241.528 224.378 240.967 223.957 240.311C223.535 239.656 223.253 238.92 223.13 238.15C223.07 237.746 223.05 237.338 223.07 236.93C223.072 236.503 223.182 236.083 223.39 235.71C223.52 235.509 223.714 235.358 223.94 235.28C224.14 235.216 224.35 235.189 224.56 235.2H225.62C226.99 235.27 228.22 235.4 229.25 235.51C231.3 235.73 232.58 235.79 232.58 235.87C231.464 236.001 230.336 236.001 229.22 235.87C228.22 235.81 226.96 235.71 225.6 235.67H224.6C224.25 235.67 224 235.72 223.85 235.96C223.703 236.273 223.628 236.615 223.63 236.96C223.584 237.855 223.766 238.746 224.16 239.551C224.554 240.356 225.146 241.047 225.88 241.56C226.867 242.187 228.038 242.459 229.2 242.33C229.991 242.242 230.74 241.93 231.36 241.43C231.78 241.09 232 240.82 232 240.86Z" fill="#263238"/>
<path d="M292.4 206.35C292.4 206.35 305.07 204.77 324.11 189.62C343.15 174.47 353.47 152.94 355.59 153.26C357.71 153.58 367.46 150.11 381.59 190.4C395.72 230.69 387.86 239 384.34 238.59C380.82 238.18 357.46 229.24 342.34 229.54C327.22 229.84 307.21 235.82 307.21 235.82L292.4 206.35Z" fill="#F5CB5C"/>
<path d="M269.61 236.43L276.38 234.99L272.71 226.08L266.99 228.94L269.61 236.43Z" fill="#455A64"/>
<path d="M270.4 225.84L272.9 233.36L274.46 237.14C275.477 239.652 277.421 241.676 279.89 242.793C282.358 243.91 285.162 244.034 287.72 243.14L315.19 235.41L303.39 200.63L276.09 212.14C273.529 213.215 271.496 215.256 270.431 217.821C269.365 220.386 269.354 223.267 270.4 225.84Z" fill="#263238"/>
<path d="M280.25 237.4L289.45 253.71L293.65 252.36L322.38 273.8L329.51 258.28C329.51 258.28 312.79 251.89 309.51 246.16C306.23 240.43 309.69 238.96 309.69 238.96L301.6 230.5L280.25 237.4Z" fill="#263238"/>
<path d="M380.08 191C387.55 212.81 389.73 231.82 384.94 233.46C380.15 235.1 370.2 218.76 362.72 196.95C355.24 175.14 353.07 156.13 357.86 154.48C362.65 152.83 372.6 169.16 380.08 191Z" fill="#263238"/>
<path d="M361.25 184.5C361.25 184.5 372.67 178.83 377.2 193.96C381.73 209.09 370.15 210.42 370.15 210.42C365.981 202.241 362.985 193.515 361.25 184.5Z" fill="#FAFAFA"/>
<path d="M351.42 166.05C351.384 166.996 351.438 167.944 351.58 168.88C351.75 170.69 351.99 173.32 352.38 176.56C352.693 178.167 353.027 179.913 353.38 181.8C353.57 182.74 353.76 183.72 353.95 184.72C354.05 185.22 354.15 185.73 354.25 186.25C354.37 186.76 354.53 187.25 354.67 187.79L356.52 194.3L357 196C357.16 196.58 357.41 197.13 357.61 197.7C358.03 198.84 358.46 199.99 358.9 201.16L360.2 204.62C360.42 205.18 360.6 205.76 360.86 206.3L361.61 207.91L364.5 214.04C364.74 214.52 364.95 215.04 365.2 215.47L365.98 216.82L367.47 219.41L370.15 224.02C371.98 226.72 373.52 228.85 374.58 230.33C375.09 231.129 375.672 231.879 376.32 232.57C375.911 231.717 375.429 230.901 374.88 230.13L370.7 223.66L368.14 219L366.71 216.43C366.46 215.98 366.21 215.53 365.95 215.08C365.69 214.63 365.51 214.13 365.28 213.64C364.38 211.69 363.43 209.64 362.46 207.53L361.71 205.93C361.46 205.39 361.28 204.82 361.06 204.26L359.78 200.83C359.35 199.67 358.92 198.52 358.49 197.39C358.29 196.83 358.04 196.28 357.89 195.71C357.74 195.14 357.56 194.57 357.39 194.01L355.51 187.55C355.37 187.04 355.2 186.55 355.08 186.03C354.96 185.51 354.86 185.03 354.76 184.52C354.55 183.52 354.34 182.52 354.15 181.62C353.75 179.76 353.37 178.02 353.03 176.43C352.58 173.25 352.2 170.66 351.94 168.82C351.838 167.885 351.664 166.959 351.42 166.05Z" fill="#263238"/>
<path d="M315.19 235.36C314.795 235.542 314.378 235.673 313.95 235.75L310.55 236.65C307.67 237.39 303.7 238.44 299.32 239.65C294.94 240.86 290.99 241.96 288.1 242.65C286.65 243.01 285.48 243.28 284.66 243.45C284.24 243.557 283.812 243.627 283.38 243.66C283.778 243.481 284.194 243.343 284.62 243.25L288 242.25L299.19 239.08C303.56 237.87 307.56 236.87 310.46 236.22C311.91 235.89 313.09 235.64 313.91 235.49C314.332 235.407 314.76 235.363 315.19 235.36Z" fill="#455A64"/>
<path d="M299 229.68C298.15 230.158 297.252 230.544 296.32 230.83C294.63 231.46 292.32 232.26 289.65 233.05C286.98 233.84 284.6 234.45 282.85 234.85C281.913 235.118 280.952 235.289 279.98 235.36C280.882 234.997 281.812 234.706 282.76 234.49C284.49 234 286.87 233.33 289.5 232.55C292.13 231.77 294.5 231.02 296.2 230.48C297.111 230.139 298.047 229.872 299 229.68Z" fill="#455A64"/>
<path d="M294.68 221.74C291.915 222.851 289.087 223.796 286.21 224.57C283.381 225.517 280.5 226.299 277.58 226.91C280.348 225.798 283.18 224.849 286.06 224.07C288.886 223.128 291.764 222.35 294.68 221.74Z" fill="#455A64"/>
<path d="M290.42 214.09C288.09 215.392 285.679 216.541 283.2 217.53C280.794 218.689 278.315 219.691 275.78 220.53C278.103 219.219 280.512 218.066 282.99 217.08C285.397 215.917 287.879 214.919 290.42 214.09Z" fill="#455A64"/>
<path d="M259.51 300.15L242.83 272L199.7 270.22V274.14C199.7 274.14 187.86 286.06 184.04 302.29C181.15 314.58 193.31 361.48 196.73 377.74C200.93 397.74 206.73 423.02 206.73 423.02C205.86 427.5 200.11 431.13 200.51 437.11L296.37 436.06L291.44 416.63L259.51 300.15Z" fill="#F5CB5C"/>
<path d="M292.77 424.08C292.77 424.23 273.69 424.34 250.16 424.34C226.63 424.34 207.56 424.23 207.56 424.08C207.56 423.93 226.63 423.82 250.16 423.82C273.69 423.82 292.77 423.94 292.77 424.08Z" fill="white"/>
<path d="M286.14 400C286.14 400.15 267.24 400.27 243.93 400.27C220.62 400.27 201.71 400.15 201.71 400C201.71 399.85 220.61 399.74 243.93 399.74C267.25 399.74 286.14 399.89 286.14 400Z" fill="white"/>
<path d="M279.64 373.89C279.64 374.03 261.14 374.15 238.32 374.15C215.5 374.15 197 374 197 373.89C197 373.78 215.49 373.63 238.31 373.63C261.13 373.63 279.64 373.74 279.64 373.89Z" fill="white"/>
<path d="M275.09 347.58C275.09 347.72 256.03 347.84 232.53 347.84C209.03 347.84 189.98 347.72 189.98 347.58C189.98 347.44 209.03 347.32 232.53 347.32C256.03 347.32 275.09 347.43 275.09 347.58Z" fill="white"/>
<path d="M265 314.94C265 315.08 247 315.2 224.73 315.2C202.46 315.2 184.46 315.08 184.46 314.94C184.46 314.8 202.46 314.67 224.73 314.67C247 314.67 265 314.79 265 314.94Z" fill="white"/>
<path d="M251.29 285C251.29 285.14 237.98 285.26 221.55 285.26C205.12 285.26 191.81 285.14 191.81 285C191.81 284.86 205.12 284.74 221.55 284.74C237.98 284.74 251.29 284.9 251.29 285Z" fill="white"/>
<path opacity="0.3" d="M196.31 317.51C200.507 324.556 205.804 330.886 212 336.26C221.63 344.26 250.93 358.6 250.93 358.6L253.38 353.54L275.24 358.65L271.24 345.19L196.31 317.51Z" fill="black"/>
<path d="M299.15 282L291.52 323.44L226.16 292.37L215.63 329.23C241.32 341.79 293.32 362.7 300.01 362.1C309.53 361.24 316.11 355.55 319.07 341.61C320.91 332.98 320.07 275.11 320.07 275.11L299.15 282Z" fill="#C17560"/>
<path d="M230.43 286.8C230.43 286.8 205.99 271.7 195.33 290.73C187.71 309.29 196.14 324.11 214.96 333.31C224.03 337.75 236.39 343.23 248.87 348.44L267.06 308.07L230.43 286.8Z" fill="#F5CB5C"/>
<path d="M230.43 286.8C230.43 286.8 230.67 286.91 231.11 287.16L233.05 288.25L240.43 292.47L267.17 307.89L267.33 307.99L267.25 308.16L249.11 348.54L249.01 348.77L248.78 348.67C242.38 346.01 235.78 343.17 229.06 340.17C226.093 338.837 223.163 337.503 220.27 336.17C217.39 334.82 214.55 333.47 211.82 331.98C210.487 331.213 209.17 330.41 207.87 329.57C206.63 328.67 205.35 327.85 204.22 326.85C201.911 324.995 199.833 322.87 198.03 320.52L196.79 318.74C196.389 318.15 196.025 317.535 195.7 316.9C195.018 315.67 194.423 314.393 193.92 313.08C193.69 312.43 193.52 311.75 193.32 311.08L193.03 310.08C192.95 309.74 192.91 309.41 192.84 309.08C192.73 308.42 192.61 307.75 192.5 307.08C192.39 306.41 192.42 305.76 192.38 305.08C192.308 303.783 192.331 302.483 192.45 301.19C192.55 299.92 192.82 298.68 193 297.46C193.18 296.24 193.61 295.08 193.94 293.93C194.27 292.78 194.75 291.7 195.14 290.62C196.561 288.037 198.534 285.801 200.92 284.07C203.103 282.592 205.585 281.615 208.19 281.21C212.375 280.702 216.621 281.115 220.63 282.42C223.171 283.209 225.64 284.212 228.01 285.42C228.82 285.84 229.42 286.18 229.83 286.42C230.24 286.66 230.42 286.8 230.42 286.8L229.8 286.47C229.39 286.25 228.8 285.93 227.95 285.53C225.57 284.369 223.098 283.405 220.56 282.65C216.583 281.387 212.379 281.008 208.24 281.54C205.688 281.946 203.259 282.916 201.13 284.38C198.798 286.088 196.872 288.291 195.49 290.83C195.11 291.91 194.71 293 194.31 294.12C193.91 295.24 193.7 296.42 193.4 297.6C193.1 298.78 192.97 300.03 192.87 301.29C192.76 302.564 192.74 303.844 192.81 305.12C192.81 305.76 192.88 306.42 192.94 307.12C193 307.82 193.16 308.42 193.28 309.07C193.34 309.4 193.38 309.73 193.46 310.07L193.75 311.07C193.95 311.72 194.11 312.38 194.35 313.02C194.843 314.31 195.428 315.563 196.1 316.77C196.424 317.392 196.781 317.996 197.17 318.58L198.4 320.32C200.182 322.638 202.237 324.733 204.52 326.56C205.677 327.517 206.882 328.415 208.13 329.25C209.397 330.083 210.703 330.877 212.05 331.63C214.75 333.1 217.59 334.46 220.47 335.8C223.35 337.14 226.29 338.49 229.26 339.8C235.96 342.8 242.56 345.64 248.95 348.31L248.62 348.44C255.41 333.44 261.62 319.62 266.85 308.1L266.94 308.36L240.29 292.78L233 288.35L231.1 287.21C230.65 287 230.43 286.8 230.43 286.8Z" fill="#263238"/>
<path d="M298.17 289.1L299.64 273.66C299.64 273.66 293.74 261.78 293.86 260.59C293.98 259.4 294.32 252.85 294.32 252.85L309.07 239.57C309.07 239.57 313.85 239.57 313.97 244.3C313.97 244.3 318.56 243.3 318.63 248.84C318.63 248.84 323.63 249.02 323.73 253.05C323.73 253.05 326.73 252.65 326.63 256.86C326.55 259.86 325.23 271.47 325.23 271.47L319.06 282.2L318.55 292.93L298.17 289.1Z" fill="#C17560"/>
<path d="M299.7 338.58C299.53 338.64 298.44 334.89 296.21 330.69C293.98 326.49 291.39 323.55 291.52 323.44C292.181 323.983 292.769 324.608 293.27 325.3C294.56 326.905 295.698 328.625 296.67 330.44C297.633 332.257 298.436 334.154 299.07 336.11C299.375 336.906 299.587 337.735 299.7 338.58Z" fill="#7C4236"/>
<path d="M215.63 281.67C215.456 282.159 215.239 282.631 214.98 283.08C214.53 283.97 213.86 285.24 212.98 286.8C211.29 289.93 208.88 294.21 206.19 298.91L199.26 310.91L197.16 314.55C196.917 315.007 196.639 315.445 196.33 315.86C196.504 315.372 196.722 314.9 196.98 314.45C197.43 313.57 198.1 312.29 198.98 310.73C200.67 307.6 203.07 303.32 205.77 298.62C208.47 293.92 210.88 289.75 212.69 286.62C213.55 285.15 214.26 283.92 214.8 282.98C215.039 282.52 215.316 282.082 215.63 281.67Z" fill="white"/>
<path d="M235.56 290.4C235.526 290.556 235.472 290.708 235.4 290.85L234.85 292.1C234.36 293.19 233.64 294.74 232.71 296.65C230.87 300.47 228.24 305.7 225.16 311.39C222.08 317.08 219.16 322.15 216.96 325.78C215.86 327.59 214.96 329.05 214.32 330.05L213.58 331.2C213.495 331.336 213.398 331.463 213.29 331.58C213.29 331.58 213.34 331.42 213.49 331.14L214.15 329.95L216.64 325.59C218.75 321.92 221.64 316.82 224.7 311.14C227.76 305.46 230.46 300.26 232.38 296.48L234.67 292.02L235.3 290.81C235.368 290.662 235.455 290.524 235.56 290.4Z" fill="white"/>
<path d="M257.86 302.88C257.696 303.447 257.492 304.002 257.25 304.54C256.84 305.54 256.2 307.1 255.38 308.95C253.73 312.64 251.29 317.68 248.28 323.08C245.27 328.48 242.28 333.2 239.99 336.55C238.85 338.22 237.9 339.55 237.22 340.46C236.895 340.949 236.531 341.411 236.13 341.84C236.399 341.319 236.71 340.821 237.06 340.35L239.68 336.35C241.88 332.96 244.82 328.22 247.83 322.84C250.84 317.46 253.31 312.45 255.04 308.84L257.04 304.5C257.264 303.937 257.539 303.394 257.86 302.88Z" fill="white"/>
<path d="M199.75 455.62L201.83 437.11L293.28 436.1L295.61 455.62H199.75Z" fill="#263238"/>
<path d="M313 454C313 454.14 284.83 454.26 250.08 454.26C215.33 454.26 187.16 454.14 187.16 454C187.16 453.86 215.33 453.74 250.08 453.74C284.83 453.74 313 453.84 313 454Z" fill="#455A64"/>
<path d="M262.03 131.01H228.02C226.893 131.01 225.98 131.923 225.98 133.05V134.52C225.98 135.647 226.893 136.56 228.02 136.56H262.03C263.157 136.56 264.07 135.647 264.07 134.52V133.05C264.07 131.923 263.157 131.01 262.03 131.01Z" fill="#455A64"/>
<path d="M273.31 133.79C273.31 134.34 273.147 134.877 272.842 135.335C272.536 135.792 272.102 136.148 271.594 136.358C271.086 136.569 270.527 136.624 269.988 136.517C269.448 136.409 268.953 136.145 268.564 135.756C268.175 135.367 267.911 134.872 267.803 134.332C267.696 133.793 267.751 133.234 267.962 132.726C268.172 132.218 268.528 131.784 268.986 131.479C269.443 131.173 269.98 131.01 270.53 131.01C270.895 131.01 271.257 131.082 271.594 131.222C271.931 131.361 272.238 131.566 272.496 131.824C272.754 132.082 272.959 132.389 273.098 132.726C273.238 133.063 273.31 133.425 273.31 133.79Z" fill="#455A64"/>
<path d="M158.08 174.09H160.33V220.49H158.08C156.436 220.49 154.859 219.837 153.696 218.674C152.533 217.511 151.88 215.934 151.88 214.29V180.29C151.88 179.476 152.04 178.67 152.352 177.917C152.664 177.165 153.12 176.482 153.696 175.906C154.272 175.33 154.955 174.874 155.707 174.562C156.46 174.25 157.266 174.09 158.08 174.09Z" fill="#263238"/>
<path d="M157.52 241.51H159.77V287.91H157.52C155.876 287.91 154.299 287.257 153.136 286.094C151.973 284.931 151.32 283.354 151.32 281.71V247.71C151.32 246.066 151.973 244.489 153.136 243.326C154.299 242.163 155.876 241.51 157.52 241.51Z" fill="#263238"/>
<path d="M157.68 310.28C157.53 310.28 157.42 276.6 157.42 235.06C157.42 193.52 157.53 159.83 157.68 159.83C157.83 159.83 157.94 193.51 157.94 235.06C157.94 276.61 157.82 310.28 157.68 310.28Z" fill="#455A64"/>
</svg>
